<svg viewBox="0 0 1024 512" xmlns="http://www.w3.org/2000/svg" width="1024" height="512">
<rect fill="gray" width="1024" height="512" />
<path fill="none" stroke="#000000" stroke-width="2" d="M501 345 574 334 663 327 704 305 697 292 744 274 722 323 768 372 766 385 770 384 792 361 834 390 806 343 740 364 649 334 750 321 661 343 722 273 747 324 736 373 670 361 708 315 694 317 659 269 704 233 706 243 728 258 679 254 680 236 757 256 805 261 875 247 802 271 844 284 929 309 836 350 887 316 963 376 1007 422 942 481 1005 413 945 485 882 426 910 431 923 451 947 407 931 401 924 468 871 493 927 417 988 402 949 483 891 482 888 434 954 457 988 475 1003 499 1009 497 1009 497 925 460 964 424 963 425 887 417 970 418 994 385 1004 392 1012 370 955 366 892 304 976 341 969 299 973 315 990 248 985 211 989 236 920 309 834 312 819 359 817 351 870 342 869 339 866 334 904 305 880 350 978 364 974 360 984 350 957 415 936 474 1005 450 982 463 955 481 971 473 971 473 1006 405 949 350 964 375 961 442 973 392 983 402 946 361 939 338 982 377 971 307 953 312 987 254 975 238 909 180 868 238 878 253 829 191 793 190 798 193 762 250 721 296 718 298 769 287 740 325 749 383 766 392 771 371 802 365 811 337 791 294 862 365 807 322 749 399 731 307 669 381 615 453 566 429 534 429 541 416 597 398 595 413 596 398 625 382 585 326 574 331 557 360 532 345 509 305 458 303 474 294 524 369 526 274 565 322 589 305 590 293 615 343 639 383 623 454 691 466 689 427 694 415 750 361 842 328 869 308 905 295 857 265 852 248 809 155 761 143 762 158 714 119 720 105 731 130 738 179 817 175 752 165 769 102 778 91 773 117 707 49 656 42 629 50 684 111 702 118 637 108 587 151 598 81 591 66 593 73 597 45 641 61 706 23 706 23 683 16 690 64 750 36 712 20 652 10 639 36 666 132 731 183 654 221 688 214 690 226 713 299 650 363 641 372 620 359 623 329 592 302 690 292 718 241 730 266 817 251 780 282 760 220 729 201 749 280 786 286 775 260 724 340 754 319 786 303 789 304 883 325 853 365 946 374 950 374 943 381 880 456 848 429 854 420 815 415 825 419 846 403 765 377 737 362 730 373 715 356 736 337 758 288 726 340 773 316 805 336 852 304 836 242 903 302 980 348 978 345 979 248 969 250 962 254 971 273 958 301 998 346 1007 325 919 277 931 272 926 332 968 319 925 319 869 364 873 381 879 368 862 321 869 297 896 252 912 241 924 232 946 198 949 107 944 101 966 134 931 102 860 44 838 39 810 58 840 80 784 75 803 66 758 151 769 178 756 194 721 278 740 188 738 182 736 174 718 171 633 179 682 240 681 340 707 267 696 258 755 259 766 283 811 226 802 252 812 200 808 201 851 215 807 231 742 255 740 229 766 186 761 200 751 180 754 182 753 160 757 85 784 88 729 123 755 192 768 293 732 274 691 233 693 246 735 250 670 305 679 296 700 276 698 277 668 303 612 239 675 246 629 212 606 175 647 91 647 91 639 133 682 110 682 113 676 117 664 87 602 79 582 25 661 74 645 65 706 36 774 79 735 50 720 73 754 140 778 229 828 221 829 223 852 151 922 107 887 129 823 49 893 95 792 107 762 82 813 138 799 137 785 143 751 220 719 231 729 195 782 114 772 85 755 71 773 88 753 82 812 107 767 182 818 259 794 271 800 311 768 364 758 389 752 384 801 331 820 243 848 223 874 229 889 276 891 290 862 298 774 276 763 292 760 294 802 267 778 270 796 222 803 210 803 202 788 241 813 288 793 255 757 264 761 264 745 182 709 227 712 222 734 169 721 138 742 154 688 222 703 259 719 271 728 265 722 309 714 247 708 203 723 215 673 294 666 308 725 305 702 378 674 358 697 299 699 288 719 262 716 315 711 375 773 419 712 463 711 465 671 410 642 456 559 402 550 395 550 456 478 453 492 491 531 463 577 445 581 446 615 444 600 443 586 417 590 415 679 454 667 425 667 425 666 428 601 436 658 448 643 493 657 445 613 462 603 491 598 492 585 478 558 475 575 483 604 442 623 361 615 409 611 468 622 428 568 447 603 411 674 406 659 345 601 427 627 405 594 412 562 405 541 359 509 387 452 386 440 339 344 314 358 342 404 292 405 290 399 206 307 224 357 213 375 249 299 225 221 241 208 219 213 213 241 236 325 238 319 237 318 185 273 148 281 77 245 39 244 37 282 51 320 128 358 144 349 158 341 149 309 236 305 245 286 259 295 186 303 184 204 193 187 198 203 255 251 267 190 319 212 324 198 323 167 373 166 359 127 339 127 338 92 318 40 321 62 257 60 246 70 284 153 269 103 278 195 234 188 215 153 161 123 71 161 54 98 37 15 35 21 40 86 81 72 64 41 15 37 12 37 85 61 79 24 91 34 99 132 95 160 119 159 119 144 133 113 93 159 141 140 111 177 142 123 148 111 108 62 97 69 20 75 32 86 24 73 16 56 22 72 65 10 50 28 144 123 167 66 209 78 113 72 116 35 134 34 134 65 71 74 122 85 99 11 105 41 98 72 104 45 124 48 122 92 38 34 29 41 124 69 75 85 76 127 32 85 50 73 78 71 72 139 61 189 44 173 82 241 118 287 137 308 205 276 148 303 194 303 194 360 183 394 201 406 206 467 280 445 310 494 378 511 407 556 433 628 456 691 407 735 468 684 459 694 464 673 455 707 499 707 500 700 488 620 496 620 481 619 484 702 438 774 454 754 445 819 494 869 491 883 483 947 405 869 386 869 386 912 446 998 473 996 459 919 484 887 462 867 399 929 383 883 406 895 412 867 439 776 449 778 424 726 444 785 485 831 497 843 431 904 382 916 344 916 340 822 379 900 437 899 439 878 454 902 464 899 464 886 434 944 464 951 482 953 484 983 444 910 458 887 486 896 489 980 501 999 470 979 440 1008 471 971 463 994 388 970 408 967 404 989 409 978 409 974 393 940 405 980 395 892 425 966 395 881 432 814 364 833 380 852 297 803 267 777 199 795 214 816 163 785 184 826 159 874 210 903 188 878 221 869 226 867 225 849 264 829 261 746 223 737 245 714 249 678 219 673 227 663 199 660 251 669 212 724 200 757 231 730 204 683 194 712 150 651 132 626 148 670 187 624 176 639 96 685 71 714 85 708 27 688 23 778 42 769 43 863 78 858 153 775 146 806 242 812 197 787 189 841 214 894 248 913 151 881 99 884 92 920 102 905 85 920 106 897 77 905 72 992 65 997 64 956 83 1002 126 942 181 954 236 954 235 996 209 988 176 1013 236 1013 236 1008 295 1013 360 1002 359 955 319 956 347 987 381 931 404 932 406 995 365 958 395 948 424 981 495 988 500 968 455 957 489 958 484 955 485 955 478 975 415 887 370 843 424 863 435 784 472 753 407 714 397 733 413 676 429 690 419 705 411 706 414 753 435 753 344 846 370 906 436 897 397 964 363 988 323 968 323 963 270 867 255 860 255 868 222 861 226 796 179 875 225 928 274 925 268 918 192 918 160 926 164 939 165 984 197 991 194 992 190 894 211 964 187 971 187 922 134 922 135 921 134 968 176 995 116 1002 126 931 141 926 80 925 50 904 23 896 10 955 20 969 81 922 165 886 220 904 321 894 315 909 321 924 327 942 425 912 424 994 387 948 402 944 386 954 377 1007 433 989 490 963 418 997 399 985 448 945 463 909 422 935 330 845 307 830 362 827 411 885 367 923 381 918 381 922 420 898 372 903 344 925 322 923 321 876 306 872 358 933 331 934 283 843 292 794 356 845 340 886 325 824 320 812 392 853 426 889 452 824 453 821 446 828 445 732 451 739 478 661 430 650 393 708 360 679 402 745 339 785 296 822 260 866 293 908 370 890 415 847 479 905 461 914 434 955 399 961 404 985 338 1003 381 955 397 967 377 942 409 941 407 889 481 871 469 885 467 828 463 841 457 841 406 878 454 867 483 851 488 874 438 936 464 912 481 987 423 971 424 935 472 952 473 1004 389 1007 393 928 380 926 348 860 311 852 349 866 344 784 389 735 404 749 376 754 377 752 376 744 384 714 392 728 417 747 431 745 348 738 326 792 341 771 374 798 451 735 377 764 385 824 384 838 339 789 381 825 325 799 313 770 326 707 382 705 370 733 435 719 433 657 428 686 463 609 463 696 431 714 437 749 433 734 471 823 457 872 474 842 377 815 304 856 285 864 297 885 316 882 310 884 314 895 348 957 411 955 425 921 427 915 427 946 428 985 365 963 360 890 419 934 406 937 407 955 498 916 484 891 431 899 341 879 288 849 277 911 299 966 308 943 308 969 251 948 297 979 317 981 317 951 414 904 431 885 373 902 346 845 293 865 197 889 198 914 193 923 150 871 228 827 243 904 180 875 133 873 140 921 195 919 207 1006 235 972 170 990 264 994 256 996 262 938 275 957 221 928 171 939 219 1005 254 984 197 979 267 918 315 965 236 1001 202 909 193 869 175 884 151 890 184 790 183 863 210 769 219 867 248 915 313 837 262 765 307 685 293 671 382 687 369 693 373 633 311 579 309 507 297 423 353 452 360 509 352 509 360 478 294 557 352 564 342 567 350 588 329 590 322 655 294 707 281 746 366 779 438 779 421 789 447 772 410 819 484 819 484 780 413 695 409 684 441 707 435 749 434 769 353 723 428 728 388 716 403 686 495 671 463 742 425 735 449 745 412 715 386 742 342 705 314 717 332 760 273 782 337 761 376 771 390 757 393 737 464 765 447 708 490 704 482 640 413 689 359 645 423 713 430 675 434 711 387 706 410 627 428 709 475 709 476 705 497 774 439 774 477 786 478 777 479 768 476 776 469 831 432 931 424 955 434 996 436 978 461 1010 468 998 488 906 453 932 467 915 430 907 434 936 391 950 422 916 431 845 456 892 484 965 501 993 420 1009 433 1004 424 921 435 920 430 991 443 920 457 920 453 931 398 913 354 984 300 991 296 961 285 979 281 982 276 985 322 993 417 1004 395 1000 496 1007 501 950 467 963 475 1014 452 964 443 979 438 936 484 953 475 948 410 988 490 962 496 959 488 884 467 938 436 977 391 973 306 933 255 986 213 965 219 956 227 928 250 970 266 911 291 909 292 883 315 883 313 816 271 777 265 787 169 882 167 889 167 929 170 945 169 946 199 940 196 888 161 966 226 940 233 942 274 941 282 940 247 927 251 883 190 967 202 954 183 878 184 928 110 902 130 937 140 908 155 887 146 922 101 972 51 985 58 990 46 991 46 996 69 984 51 950 43 949 43 951 42 889 24 926 115 860 135 829 83 807 80 826 31 870 93 953 151 870 131 918 171 920 169 968 225 962 193 974 164 999 98 983 64 982 58 979 59 1003 56 992 70 971 59 949 75 929 75 892 121 928 111 929 161 885 244 910 238 957 276 899 241 906 280 886 198 853 235 842 238 862 240 838 254 872 312 823 303 819 289 784 331 721 406 695 391 688 392 668 348 722 404 653 395 679 391 619 316 701 272 750 313 749 317 679 353 684 318 650 254 636 274 568 314 550 318 564 345 495 385 531 478 490 455 444 457 439 406 339 389 400 339 357 341 413 317 458 297 433 220 375 226 419 165 467 163 539 126 569 111 585 116 569 196 520 218 430 251 435 313 433 286 378 307 430 382 359 408 311 390 356 414 317 357 297 358 265 421 224 455 228 440 274 366 227 364 320 361 312 330 375 304 341 264 413 225 344 184 377 156 412 124 464 39 415 47 347 78 383 86 409 116 390 85 389 95 431 113 422 169 503 220 517 241 478 206 556 214 543 258 602 199 547 178 539 176 466 115 467 117 460 180 418 218 401 174 396 171 365 176 283 187 252 188 249 253 249 256 248 258 263 256 251 301 292 320 299 315 322 346 332 298 292 279 309 280 251 360 266 325 193 274 189 291 225 284 265 337 163 333 96 397 126 361 143 420 213 359 206 369 177 375 229 424 159 355 181 345 246 311 205 312 267 247 289 308 376 265 401 261 403 260 363 234 462 226 475 197 479 108 407 96 418 122 429 53 405 28 413 30 413 29 416 93 416 92 410 115 357 61 355 98 319 19 298 46 290 41 309 124 247 131 158 108 66 110 78 150 22 127 35 138 105 128 64 198 123 183 130 201 98 211 98 211 38 267 66 248 85 293 102 312 90 294 163 304 83 325 28 284 48 301 24 204 76 156 94 170 100 171 83 219 84 217 11 242 45 306 46 302 12 293 29 273 63 298 51 315 98 316 62 412 73 405 65 457 147 478 138 474 214 445 117 416 40 383 42 413 31 403 15 474 85 468 23 489 85 491 90 493 30 496 41 501 79 478 52 400 87 487 121 495 177 478 94 502 49 496 62 478 82 456 73 446 74 456 138 452 133 464 127 403 133 478 122 463 138 474 106 491 119 475 96 441 91 468 94 495 104 476 59 490 38 398 135 391 163 397 197 425 170 473 196 414 195 480 227 493 227 496 220 476 176 391 119 427 91 444 107 351 96 372 96 371 172 377 186 305 114 336 172 315 162 339 150 333 114 362 104 357 31 337 108 360 112 351 117 362 153 404 145 500 159 439 101 418 61 368 161 359 136 431 176 483 161 450 184 453 187 490 185 494 274 457 282 449 336 440 368 439 417 470 446 430 455 426 461 375 444 364 361 311 314 267 250 234 191 313 171 345 250 332 279 423 187 397 139 372 108 306 152 258 176 191 145 130 145 131 180 115 188 135 204 182 180 247 182 246 200 199 187 169 184 123 132 97 196 118 132 105 158 117 158 113 104 140 124 95 135 99 216 60 141 64 198 35 105 78 79 74 103 18 116 18 115 92 207 92 107 77 56 70 40 73 46 23 10 75 16 74 95 103 50 138 47 182 89 217 86 211 62 155 58 156 51 122 113 125 113 149 166 160 193 209 173 235 174 237 81 239 61 250 126 303 157 282 198 254 125 255 46 247 63 227 91 203 92 217 80 217 139 252 111 253 102 263 101 209 100 210 97 222 140 151 169 167 75 144 45 210 69 167 109 215 150 297 166 228 160 170 179 154 190 248 145 337 137 375 46 355 82 404 34 411 58 415 121 453 121 408 92 428 125 419 148 414 132 428 137 432 218 377 213 336 184 331 151 393 83 450 118 431 104 428 181 461 107 445 52 418 74 356 51 286 64 286 102 262 118 234 52 306 52 304 133 336 136 334 130 317 143 319 152 237 86 274 129 272 69 348 32 396 63 373 32 330 46 273 62 355 95 363 166 402 167 402 256 426 312 422 349 490 330 488 318 482 315 500 356 445 323 392 394 442 422 428 425 375 423 387 376 429 382 457 473 463 425 465 474 456 422 446 432 441 432 455 399 378 402 315 411 340 419 334 403 327 409 341 311 324 316 356 267 431 317 463 387 479 444 479 491 451 487 425 496 390 399 404 445 338 373 323 342 412 338 415 267 431 296 353 320 300 235 284 268 279 306 312 306 310 247 307 262 299 347 354 328 343 404 393 368 437 446 388 456 432 411 440 413 424 424 428 486 433 449 362 362 343 304 421 258 447 347 435 374 449 357 434 358 436 282 496 288 457 267 440 224 447 240 366 334 337 249 389 245 386 242 378 247 378 219 383 167 416 245 380 251 398 317 385 309 383 281 362 295 328 292 324 311 358 305 359 356 305 387 386 366 457 412 389 403 409 389 411 345 410 304 324 263 402 224 351 258 301 210 385 235 366 284 352 332 262 290 200 380 196 377 243 411 286 384 319 416 355 452 389 457 402 463 403 469 493 478 484 452 501 542 454 562 451 636 397 555 400 548 382 551 396 552 385 516 373 521 354 526 422 538 431 577 419 584 398 600 387 584 397 583 394 484 376 495 385 584 369 590 369 679 380 680 398 661 406 709 337 693 318 681 316 733 355 761 389 676 384 697 383 720 361 664 287 571 257 619 345 656 408 712 380 748 338 " />
</svg>