<svg viewBox="0 0 1024 512" xmlns="http://www.w3.org/2000/svg" width="1024" height="512">
<rect fill="gray" width="1024" height="512" />
<path fill="none" stroke="#000000" stroke-width="2" d="M507 255 477 216 551 216 540 159 613 230 696 276 631 323 636 346 629 342 687 265 675 253 642 224 582 155 604 217 658 270 619 249 599 302 515 265 413 267 434 245 485 231 522 287 519 287 597 304 515 309 494 270 558 312 558 316 557 324 591 264 528 216 493 195 487 196 508 175 513 175 500 166 559 184 589 153 584 158 566 195 569 202 623 259 607 279 649 332 608 275 577 233 519 211 495 281 544 364 528 406 564 427 577 418 481 448 454 368 434 409 463 474 466 468 448 498 446 496 476 495 535 471 503 434 541 360 482 441 451 467 450 467 401 474 453 424 436 404 438 402 442 380 525 340 468 382 546 436 462 482 453 479 418 417 490 489 525 456 520 487 609 478 592 493 584 493 564 476 468 483 559 483 562 485 499 469 491 413 463 451 497 443 488 481 473 439 378 461 364 478 367 489 289 435 200 396 187 414 135 432 139 427 61 377 62 383 80 416 108 369 169 323 171 370 149 382 219 370 234 410 283 322 302 248 306 252 385 313 347 256 339 280 391 247 328 224 379 157 378 153 310 210 324 175 322 177 332 132 320 188 249 237 294 313 353 307 351 300 344 293 384 277 400 244 442 178 448 173 505 190 491 182 533 182 528 245 558 198 578 268 662 212 706 187 699 165 734 101 752 74 818 53 819 53 775 66 702 57 700 37 707 23 681 40 655 112 705 98 657 182 670 170 652 143 633 228 653 221 669 225 651 204 603 127 552 149 542 85 497 158 543 140 524 151 452 193 457 208 443 270 457 228 500 160 516 170 482 223 483 167 562 202 462 206 411 167 314 163 303 197 333 176 298 200 303 211 303 212 294 275 220 232 199 135 206 127 187 60 166 104 200 175 187 207 187 217 178 226 207 314 126 339 138 340 137 340 138 321 155 220 151 166 140 158 90 210 119 211 116 211 122 186 112 211 101 214 74 250 133 269 211 316 220 349 133 386 188 330 208 239 201 190 205 202 198 181 140 134 112 122 108 85 68 42 65 45 26 32 55 27 66 26 24 94 11 45 77 64 152 62 135 81 60 85 111 37 180 20 201 31 149 94 163 176 161 156 205 226 166 166 186 160 167 160 146 188 179 174 113 241 111 242 128 291 63 239 66 226 69 223 63 280 72 265 62 296 42 357 40 393 41 391 16 389 26 418 90 462 21 478 22 456 15 449 46 457 70 414 55 387 53 379 19 467 63 454 106 460 121 447 152 481 152 481 163 489 147 491 191 493 239 467 145 467 155 451 162 439 160 450 164 451 147 424 198 383 144 434 159 394 95 377 65 375 133 369 99 311 30 351 29 349 57 308 76 227 23 181 47 148 48 147 110 156 115 150 101 144 142 147 48 141 84 170 132 169 75 180 104 244 157 176 221 216 237 235 189 190 174 182 209 134 145 54 167 49 140 91 158 116 158 116 136 213 125 210 65 172 52 125 17 159 25 153 38 110 97 109 41 33 44 107 31 112 79 70 85 88 149 26 172 112 187 102 185 115 108 91 69 137 94 127 137 154 138 157 103 139 45 163 43 172 76 165 31 213 115 254 129 155 121 206 79 290 133 224 117 270 203 252 236 281 252 282 213 255 175 266 173 253 168 250 171 243 244 253 228 266 193 298 148 321 211 366 147 355 122 354 60 382 98 309 156 251 144 210 179 198 148 282 156 208 152 194 55 168 107 114 28 110 88 144 92 147 57 83 69 73 98 81 150 25 74 76 68 52 75 90 74 91 74 91 65 90 82 51 87 25 88 25 116 35 202 73 216 52 248 94 265 135 224 79 227 66 265 133 198 139 232 127 205 125 205 109 179 102 169 90 162 179 161 179 252 194 212 287 127 321 102 278 128 234 91 209 103 208 67 274 51 309 50 326 102 358 93 361 94 322 82 367 82 368 63 403 28 316 37 389 36 358 48 335 29 398 29 397 48 389 86 410 82 436 109 414 122 318 137 325 139 325 166 252 191 289 189 286 157 268 57 261 106 250 111 156 71 159 98 160 99 160 78 167 12 196 69 206 90 215 107 242 110 203 65 212 86 191 122 105 115 82 179 135 198 161 193 167 179 86 265 70 210 19 215 20 223 46 220 42 249 39 203 23 208 33 176 13 187 60 139 125 148 155 102 217 134 286 108 269 179 202 98 155 14 140 15 137 54 88 65 93 90 96 73 79 81 88 74 112 30 121 28 113 48 131 95 135 102 140 38 186 74 165 81 131 49 82 38 59 85 139 88 141 81 144 79 145 107 139 135 136 78 176 123 107 46 121 46 97 46 78 12 80 48 72 30 115 33 117 17 58 25 21 11 33 15 35 20 37 18 101 38 150 57 178 135 185 46 217 42 272 63 264 105 306 25 324 119 311 30 328 25 331 97 373 97 371 75 403 84 424 81 332 90 328 135 335 59 389 50 424 115 414 140 422 141 422 221 398 149 422 79 362 22 372 17 352 17 352 13 262 19 237 37 194 39 192 51 145 17 223 60 192 66 153 45 117 69 81 92 109 83 77 66 149 97 174 27 243 96 302 77 314 78 316 94 303 31 343 62 252 81 267 83 188 19 211 29 226 73 168 84 174 81 174 125 85 66 57 56 26 40 40 75 18 81 28 60 30 69 129 61 197 67 107 89 138 138 167 141 175 205 119 270 149 288 214 284 188 346 186 430 212 530 191 463 124 542 134 549 111 466 146 417 115 411 61 378 73 343 140 388 126 438 85 397 137 470 130 469 133 491 79 454 76 419 160 392 159 490 136 520 119 579 67 595 18 552 78 480 72 463 79 476 84 503 167 558 185 542 169 495 111 499 110 434 63 424 80 401 68 327 21 336 50 348 30 312 45 392 99 366 40 367 109 405 90 402 103 467 30 397 61 353 123 332 108 375 124 426 151 423 144 458 228 455 205 486 240 486 247 471 293 465 324 490 332 488 329 510 288 454 301 424 320 329 317 344 223 414 284 374 304 371 304 382 352 411 437 398 409 412 430 498 386 502 356 500 355 453 328 510 263 439 291 449 220 361 248 389 250 401 251 396 313 368 258 295 255 292 320 292 321 338 397 339 411 265 396 265 377 221 446 215 455 311 474 226 444 268 395 265 399 315 380 222 368 217 409 240 411 222 390 228 391 257 422 260 374 255 285 340 258 422 246 380 316 421 338 383 331 403 292 417 234 419 330 491 340 473 320 438 354 420 363 366 295 365 293 309 286 253 349 260 299 182 357 194 351 126 287 107 270 193 325 181 294 95 331 83 326 45 238 48 153 53 176 109 99 68 154 52 114 110 168 62 203 17 245 101 197 88 286 73 272 81 236 80 247 51 243 58 253 42 247 60 231 36 255 49 224 20 272 15 348 77 407 53 457 43 453 94 453 117 380 56 393 23 420 47 489 71 463 117 480 169 429 150 379 156 479 95 478 26 436 92 445 41 457 17 373 52 393 97 314 76 316 70 374 124 299 177 272 141 201 177 194 163 146 139 137 130 164 202 167 230 194 233 197 222 207 214 223 153 216 168 208 200 241 262 189 252 207 239 182 220 188 148 200 131 162 157 209 116 154 40 183 38 182 27 198 96 244 139 227 124 261 33 264 93 308 156 353 150 333 121 260 101 236 80 263 136 224 133 206 85 165 70 144 69 75 109 66 180 19 213 28 312 17 295 23 312 64 322 55 413 53 434 144 425 144 466 209 373 220 322 284 311 316 337 252 372 348 356 354 375 432 365 379 395 352 433 290 403 325 393 268 424 181 427 171 419 147 399 138 398 146 384 195 470 189 496 114 556 127 593 192 534 159 466 236 470 205 518 236 448 195 359 179 355 78 340 100 357 184 345 155 430 144 470 231 472 227 460 235 507 226 534 227 517 273 507 281 537 339 538 339 484 333 464 336 365 325 425 358 402 395 347 339 296 339 279 365 274 422 256 422 282 447 231 492 232 497 220 407 170 456 170 456 200 483 139 432 50 465 38 426 52 364 79 367 94 337 133 366 116 349 100 278 133 361 124 376 116 339 127 337 68 320 69 315 67 356 92 309 68 319 103 281 55 343 109 288 115 378 121 399 216 390 306 341 291 270 288 261 325 196 288 179 268 278 266 354 232 332 246 308 189 280 180 323 175 320 127 266 134 257 96 180 61 175 53 180 43 123 91 33 126 51 175 27 175 33 95 20 101 58 155 93 88 112 189 105 121 175 122 194 78 281 110 228 113 216 65 208 104 138 142 106 185 199 240 237 284 152 315 163 288 243 273 262 313 178 365 224 431 280 462 313 462 313 467 327 429 234 450 178 439 188 414 214 430 189 491 262 408 299 427 301 471 354 488 287 485 357 454 449 415 392 435 395 349 413 404 473 414 484 331 474 374 481 293 442 308 439 311 481 309 447 338 438 357 435 444 436 426 447 433 459 355 474 335 472 365 479 355 487 406 448 406 389 334 348 321 372 406 388 405 412 459 462 511 433 547 365 529 352 584 412 580 379 580 375 644 327 648 313 607 340 605 314 605 315 573 321 623 266 694 245 710 249 667 324 727 303 653 239 638 236 642 160 647 209 647 210 647 207 637 218 633 198 621 217 632 197 668 225 578 195 580 195 652 216 617 226 570 307 591 254 620 208 614 214 692 177 626 175 588 95 570 45 647 84 558 54 527 59 498 38 473 38 487 26 487 35 517 49 598 68 498 89 451 34 508 11 496 70 457 87 481 41 520 109 543 71 535 72 555 22 557 16 574 28 507 49 465 92 465 92 402 161 491 159 540 93 558 28 553 33 517 69 570 38 637 34 632 17 626 31 699 82 701 84 675 102 730 118 725 119 762 143 820 208 759 128 814 135 811 144 840 146 826 118 903 95 894 62 890 93 891 95 908 62 916 30 893 58 976 106 950 142 984 221 906 196 929 186 899 240 965 224 966 185 949 197 862 189 869 182 836 206 820 225 834 294 844 266 874 188 890 147 864 117 930 80 986 102 917 156 840 113 792 110 804 192 831 218 832 224 826 171 827 171 864 186 950 215 949 202 898 135 925 199 907 221 951 202 968 158 1002 84 990 92 923 153 945 145 900 114 898 136 933 152 923 107 1000 72 979 98 940 128 952 125 916 110 865 153 850 143 815 173 808 92 781 106 767 174 774 169 731 80 700 99 631 146 644 155 659 188 694 186 745 123 746 131 718 58 667 123 655 45 657 44 565 71 582 17 639 22 599 22 535 29 528 19 618 65 654 74 742 58 758 120 754 128 800 103 800 106 796 105 811 84 762 104 822 148 869 180 896 124 883 36 890 39 946 85 944 99 979 79 927 58 892 77 871 35 804 74 887 44 893 64 883 31 878 27 891 51 893 58 902 99 949 134 944 129 959 207 952 128 955 124 980 192 938 231 879 186 883 200 888 228 889 228 906 286 866 217 882 200 875 197 832 169 856 228 853 242 764 192 726 281 745 274 761 282 792 231 828 202 790 138 694 124 639 161 637 161 650 175 710 131 770 85 768 27 702 13 626 27 644 62 603 31 539 52 495 106 433 83 466 32 440 87 423 88 449 166 426 207 443 188 481 230 481 229 481 201 538 144 532 118 546 31 513 109 484 70 553 25 625 29 557 54 586 87 651 123 610 203 695 202 713 196 711 206 708 204 729 280 753 300 754 284 714 251 737 332 739 387 750 456 779 499 744 493 719 402 690 395 670 398 680 401 682 454 657 443 653 493 639 420 585 403 594 379 602 450 664 468 612 468 625 475 638 476 640 470 708 397 724 339 724 338 713 338 753 315 830 292 856 341 813 418 828 470 753 491 766 498 759 466 750 497 779 432 766 389 738 478 721 465 771 484 701 465 697 401 701 359 688 348 700 366 684 330 706 297 791 305 817 324 818 328 895 338 895 339 854 348 856 292 816 212 813 156 745 205 654 184 679 226 678 127 724 176 739 140 806 103 844 161 814 118 788 113 790 101 839 152 830 230 807 173 773 194 759 244 758 244 738 234 735 230 761 197 766 276 801 312 837 311 864 355 862 359 909 447 935 444 884 479 858 494 832 426 814 410 811 400 803 404 825 410 872 447 869 500 812 453 794 462 879 489 843 456 772 462 851 477 865 447 836 388 869 420 828 460 785 411 759 373 836 427 807 461 827 459 825 457 816 460 816 462 812 459 864 429 838 406 763 422 763 440 756 383 719 383 670 454 577 452 558 432 543 361 572 379 556 374 494 356 454 401 408 382 415 345 474 365 488 378 520 397 493 389 473 356 465 359 463 358 400 415 425 426 392 350 350 307 375 305 436 265 438 246 412 234 414 233 483 231 508 202 501 189 507 144 524 129 532 177 455 149 397 177 482 146 473 134 503 110 494 90 461 90 526 75 461 123 398 203 406 196 395 196 398 198 381 205 365 181 405 98 446 120 506 121 511 125 501 58 467 48 552 72 593 105 637 15 662 17 667 33 595 96 638 66 620 145 630 136 667 160 674 155 655 167 643 156 607 149 592 153 624 171 601 207 643 197 656 206 644 157 668 169 723 175 644 211 698 188 721 202 736 236 664 166 665 148 644 185 696 175 665 110 706 164 679 91 705 32 777 16 823 22 878 102 922 134 954 94 918 19 993 16 982 38 987 29 994 38 993 41 1011 55 1012 53 960 106 955 99 920 116 909 118 922 189 964 268 901 227 896 227 915 233 994 247 1000 303 936 300 980 349 901 288 814 305 832 234 840 230 751 256 749 265 751 279 826 338 758 402 742 391 667 347 739 335 732 298 652 274 681 304 694 347 711 438 736 378 721 300 790 330 767 313 766 311 800 276 787 270 825 218 790 225 790 211 776 199 851 199 861 198 876 202 923 166 899 261 900 250 914 198 853 245 850 248 915 243 931 155 952 236 987 306 981 316 984 254 954 303 983 355 996 415 968 389 982 398 976 405 983 391 976 355 928 320 905 290 871 328 855 309 832 405 865 349 863 344 845 338 821 339 821 341 811 364 805 353 765 399 760 408 791 460 790 459 786 444 842 417 865 413 883 406 910 407 855 415 850 362 848 379 854 383 878 407 864 417 917 356 898 338 844 298 888 329 889 322 944 250 932 223 874 242 872 241 863 221 858 275 926 262 986 264 975 282 975 283 1005 337 999 371 978 342 984 261 967 243 951 223 870 280 866 278 868 288 869 292 922 303 914 342 1012 319 934 378 927 374 986 446 952 419 953 416 974 492 923 475 867 473 827 472 857 425 858 435 854 422 851 393 847 415 816 390 857 422 879 408 882 407 938 386 1010 377 998 287 998 218 944 264 941 264 884 254 805 250 778 241 723 268 723 241 813 285 839 318 846 318 873 340 947 270 973 311 982 286 1009 247 998 265 998 262 1001 300 996 303 961 267 967 313 953 339 1002 288 997 281 992 315 946 398 927 377 924 383 927 473 846 491 895 424 895 424 906 495 929 496 926 496 984 445 944 396 942 392 983 360 969 368 986 345 929 350 926 349 940 410 930 378 930 379 1006 353 998 347 989 352 964 336 948 405 873 357 864 330 828 320 854 305 912 278 903 268 809 282 818 288 813 295 804 273 831 220 840 219 843 200 855 265 878 330 967 293 985 223 988 142 965 149 959 152 946 134 895 116 894 101 906 129 832 64 762 43 789 73 777 100 782 89 752 34 785 103 738 30 707 39 702 123 703 119 659 163 651 146 638 155 645 171 663 146 658 175 641 180 610 125 603 101 616 99 556 17 512 39 588 101 536 33 455 59 465 26 542 66 525 164 515 211 552 192 556 196 631 175 632 98 636 76 621 63 641 72 613 148 613 152 590 185 589 186 578 143 518 154 494 163 525 208 557 205 555 200 532 208 571 250 614 236 565 196 633 225 626 257 596 182 641 204 648 220 566 166 569 161 569 161 544 200 538 204 529 154 533 161 573 160 513 159 579 105 544 105 478 90 488 173 515 104 528 160 583 167 630 126 611 128 608 131 577 128 549 65 605 66 557 111 606 140 614 121 599 218 523 247 518 243 557 293 518 267 525 256 499 289 509 229 534 267 601 241 581 223 556 226 636 258 661 283 669 289 685 297 648 321 631 274 716 220 731 279 751 224 695 272 696 315 671 405 641 336 566 365 496 318 418 314 459 348 458 323 479 408 484 416 468 440 494 495 492 462 544 459 533 453 568 488 494 426 546 443 501 462 485 469 557 459 560 463 520 452 538 460 535 460 541 463 537 375 548 331 591 387 610 374 662 403 " />
</svg>