<svg viewBox="0 0 1000 1000" xmlns="http://www.w3.org/2000/svg" width="1000" height="1000">
<rect fill="gray" width="1000" height="1000" />
<path fill="none" stroke="#000000" stroke-width="2" d="M511 456 521 448 575 455 575 457 578 449 637 450 625 427 572 485 523 496 515 445 520 476 465 445 539 427 533 426 464 354 468 343 462 358 459 357 450 356 432 412 363 354 342 359 302 339 331 314 355 298 323 261 284 185 281 192 225 250 245 208 239 191 306 167 242 142 244 153 234 144 234 169 245 192 238 160 240 166 328 126 332 197 318 263 306 252 352 291 376 303 327 232 321 186 252 203 264 227 265 231 343 243 312 260 292 220 277 278 326 337 349 331 334 343 332 365 304 298 317 319 260 377 257 387 257 446 248 526 240 513 173 532 220 560 290 523 276 559 302 538 248 547 240 544 237 544 198 584 238 611 316 556 315 591 359 574 404 591 466 517 481 543 501 547 515 646 585 586 670 585 669 588 596 522 550 539 608 530 660 524 643 527 574 491 595 536 534 588 519 596 556 679 486 641 490 645 410 672 430 691 348 638 334 645 261 621 284 565 272 543 193 518 189 527 194 531 227 522 234 488 245 484 236 447 223 483 298 446 306 490 263 433 187 446 204 453 212 447 256 466 253 466 207 423 207 420 218 499 225 482 224 469 178 496 188 490 199 529 121 582 111 587 91 614 125 663 189 680 238 702 277 637 277 637 259 617 316 550 237 562 234 582 186 584 224 555 252 540 261 546 287 528 297 615 274 631 277 613 211 539 205 633 260 606 242 592 189 619 204 534 207 532 192 531 226 512 323 512 343 488 319 409 342 424 348 423 405 400 415 410 450 491 454 496 423 533 391 524 344 565 308 487 285 501 228 546 189 548 180 497 179 547 218 540 293 542 280 490 276 453 267 463 220 433 218 434 218 421 155 476 175 489 196 462 193 461 156 461 226 432 244 447 243 537 281 474 349 462 286 512 290 534 213 489 143 448 199 499 243 567 267 534 273 543 293 479 291 461 290 461 302 446 290 414 347 366 339 342 338 338 323 381 261 340 219 426 214 427 193 426 199 436 204 445 172 371 238 319 236 318 226 347 235 358 208 377 209 461 231 417 214 432 193 377 165 329 137 275 158 289 105 254 107 261 79 311 74 215 52 155 11 225 49 246 68 244 114 176 137 243 130 255 174 192 149 187 143 91 81 21 85 20 36 86 132 73 124 66 149 65 183 151 200 161 168 244 160 263 109 298 161 295 259 290 283 327 298 350 291 306 264 334 306 424 277 499 277 512 271 534 215 546 227 532 235 593 246 590 319 559 338 546 329 541 310 554 349 640 364 619 355 666 365 628 360 629 355 614 356 615 403 675 427 671 436 739 431 714 358 663 402 648 474 669 466 707 488 692 532 707 609 695 600 681 656 644 651 571 663 512 729 532 697 620 688 633 610 612 672 660 663 588 594 619 584 636 618 672 653 700 637 604 604 608 562 610 488 636 458 558 512 595 545 664 495 684 504 660 487 629 468 574 500 540 498 503 542 543 596 476 604 473 603 465 623 401 624 412 677 368 597 345 597 338 602 330 559 410 537 432 617 484 639 388 684 378 732 428 713 451 663 518 713 480 722 430 653 394 724 362 652 293 711 264 771 244 741 276 688 312 723 246 676 268 706 246 705 236 764 312 776 311 753 261 783 238 791 192 816 142 819 139 789 44 785 39 806 106 844 48 845 72 783 135 788 131 758 143 732 72 746 101 751 134 725 194 735 208 723 192 713 199 726 252 767 271 811 261 768 292 724 215 628 219 654 214 650 230 652 240 687 192 636 204 631 206 641 167 605 133 605 196 581 184 491 196 521 176 529 228 500 274 510 265 437 290 513 302 470 216 507 226 549 216 581 239 567 222 639 200 705 134 705 133 738 199 747 196 710 276 757 257 825 193 844 150 874 173 855 221 779 253 846 326 829 328 828 280 873 222 893 229 887 226 917 308 955 275 957 243 915 318 901 295 847 366 790 418 813 447 840 388 771 359 743 443 726 416 730 415 728 417 664 384 642 326 543 336 567 313 535 398 538 402 513 323 496 357 497 427 537 430 517 413 516 421 518 420 555 434 555 338 562 256 537 278 612 283 609 228 621 220 583 289 647 254 690 208 739 171 701 160 760 229 842 175 791 179 712 133 698 135 717 99 749 142 749 142 749 142 793 116 842 35 814 64 828 71 814 29 803 46 715 91 709 96 752 185 729 139 726 139 706 120 774 185 771 184 800 160 881 175 862 169 808 229 795 228 712 199 693 194 680 200 762 153 718 69 722 77 728 84 729 97 774 109 784 102 770 124 781 121 800 134 742 93 766 98 751 19 758 51 702 46 658 122 615 38 651 40 629 13 590 32 576 71 587 73 625 114 579 37 592 33 598 19 567 74 603 74 695 42 681 80 693 64 693 84 710 89 644 157 674 150 667 95 730 96 794 160 830 98 838 196 837 196 865 127 929 196 865 239 869 238 825 230 778 288 830 340 758 357 677 343 687 392 634 325 623 282 581 323 579 306 580 292 578 237 594 253 552 287 525 226 532 240 516 265 430 259 426 268 449 178 498 197 446 186 426 243 360 254 437 252 362 237 341 197 333 223 320 185 375 253 441 212 443 184 438 278 448 273 441 217 348 213 313 227 323 224 309 197 276 208 335 211 291 149 322 172 378 232 304 178 301 218 297 258 286 278 230 325 236 350 249 350 280 331 291 330 351 383 370 379 401 472 407 527 395 533 338 507 311 582 303 597 296 603 301 582 339 644 327 731 362 736 321 692 332 637 304 731 334 696 269 682 309 629 297 626 352 627 344 639 366 622 399 612 367 577 411 562 354 484 391 496 430 427 441 378 406 312 401 301 430 294 443 301 442 302 453 350 388 372 365 291 303 278 280 320 217 320 217 336 246 384 223 370 292 329 345 330 335 312 311 279 322 272 379 274 378 273 387 299 383 301 364 293 358 209 373 171 374 177 427 227 417 222 357 240 336 226 303 221 214 239 266 156 259 148 228 228 228 228 291 232 292 231 291 232 292 216 238 254 223 280 262 369 321 315 325 310 363 251 361 254 440 244 393 271 345 260 390 219 443 152 454 138 470 148 468 175 471 161 461 169 549 164 583 122 629 116 651 80 733 89 738 87 654 70 685 28 766 62 717 148 772 79 772 79 799 124 777 154 747 66 681 111 697 174 705 206 741 223 729 235 724 232 733 232 726 192 784 267 779 227 847 276 847 277 808 367 753 309 745 331 738 329 745 324 722 333 758 337 803 306 798 361 811 346 798 335 797 334 848 351 861 388 855 402 868 388 868 473 885 397 872 407 844 390 829 385 745 436 741 473 725 423 693 485 672 484 680 454 710 474 796 483 726 454 710 454 746 547 681 557 686 574 728 534 732 540 747 578 724 553 759 569 821 515 817 465 833 543 876 552 801 523 780 499 751 513 750 488 782 475 738 539 662 578 607 528 675 601 678 680 695 670 715 579 666 625 674 604 667 607 650 670 625 741 552 740 525 813 516 821 486 734 428 813 418 866 361 891 312 812 320 832 288 793 225 766 298 747 307 742 274 708 314 654 303 598 324 559 319 611 300 617 261 647 295 574 267 556 260 558 246 543 205 536 131 535 177 538 230 477 241 388 229 328 312 302 287 329 314 422 332 473 344 461 360 481 314 531 243 543 231 489 263 563 273 586 314 506 248 515 259 515 254 513 242 428 208 493 290 540 278 535 235 585 194 495 243 437 242 441 172 379 135 381 110 399 72 308 94 262 109 219 85 213 145 255 149 246 178 235 204 280 275 346 248 339 235 389 288 330 248 276 267 189 249 136 215 122 290 108 300 59 299 78 369 31 452 38 509 15 572 24 541 71 475 101 497 91 427 157 419 150 431 107 506 41 497 112 483 77 532 122 606 181 599 159 594 190 650 168 655 176 574 191 568 234 515 151 560 99 545 26 602 19 594 46 569 43 486 87 480 171 420 220 374 198 305 155 307 159 362 166 398 171 401 144 392 114 390 122 396 55 417 42 416 124 398 55 401 65 375 93 433 74 373 101 414 83 402 70 333 123 333 123 283 176 266 236 276 250 268 180 329 142 374 55 379 93 447 156 513 174 513 171 552 162 558 187 540 232 558 236 462 247 461 213 477 200 503 264 434 283 519 294 466 265 403 278 349 237 309 305 315 328 340 311 352 310 366 364 385 354 376 363 397 351 425 373 446 403 443 476 449 478 393 453 385 447 296 468 275 446 292 494 320 536 297 510 306 505 259 431 249 398 235 403 237 399 187 475 234 490 249 482 206 482 218 491 202 472 209 415 213 406 190 358 127 310 89 259 162 221 236 197 253 209 205 197 239 111 190 124 169 96 238 155 283 185 332 174 384 238 376 248 406 166 469 193 444 259 453 273 464 279 512 289 510 286 502 290 445 321 425 354 346 328 385 262 386 265 423 288 416 290 421 335 448 386 444 479 440 478 437 490 481 508 501 481 493 470 516 422 516 402 594 379 588 435 628 460 658 514 680 428 633 445 635 457 668 515 705 448 702 460 702 460 687 547 735 551 721 530 789 466 790 425 790 425 823 448 742 458 804 448 751 491 718 570 805 599 798 600 785 526 783 551 862 521 823 447 852 452 843 458 795 479 769 488 772 493 791 477 839 486 849 468 854 468 880 462 931 391 973 338 941 425 887 445 886 410 900 434 984 391 986 340 967 243 970 246 963 210 969 201 969 201 974 293 894 320 845 293 913 242 904 234 971 234 919 175 946 181 951 204 966 255 947 258 951 284 953 307 941 311 942 302 891 286 887 346 936 264 942 228 983 313 983 370 983 368 913 358 899 380 984 342 978 348 989 277 940 245 860 294 936 277 926 242 908 270 811 277 859 309 887 330 837 389 842 382 826 374 906 365 950 314 874 329 858 235 872 228 862 131 885 110 900 72 947 120 938 84 959 93 888 99 927 160 958 109 936 56 926 55 948 93 972 95 926 107 920 87 839 136 778 146 802 178 815 123 843 139 843 143 786 195 792 199 813 245 784 230 783 286 786 299 758 331 796 347 799 299 817 220 820 192 818 198 803 231 799 222 809 220 769 183 790 212 789 214 824 186 860 164 842 178 878 269 874 293 816 348 814 326 786 351 769 363 745 454 800 391 824 348 726 362 657 324 613 410 613 412 588 491 608 487 639 533 663 471 647 453 604 458 614 375 636 344 558 322 579 357 530 341 515 337 546 356 546 356 521 361 440 338 476 321 514 330 480 244 481 244 440 291 442 291 463 281 414 220 331 205 333 204 329 217 300 238 209 278 234 304 247 271 286 246 284 184 273 253 308 218 261 180 218 161 191 162 203 154 201 239 206 249 240 223 164 197 161 185 164 181 175 175 173 168 206 95 206 31 235 54 251 33 176 60 185 95 149 73 118 103 112 17 72 39 90 20 165 38 160 85 224 91 184 146 176 205 105 221 140 259 203 219 188 221 242 249 182 263 208 269 155 346 150 342 149 341 174 313 169 281 207 262 242 264 295 313 358 340 362 268 362 268 454 259 393 261 410 239 415 240 447 283 403 355 379 394 370 391 393 410 353 319 368 367 409 386 485 331 574 319 582 394 536 427 559 395 562 373 564 376 630 388 579 410 568 381 556 296 524 222 555 231 544 231 578 252 493 278 473 275 470 274 470 270 478 267 525 311 516 354 510 363 544 334 530 345 572 351 572 358 555 326 609 359 532 345 557 351 592 277 629 348 639 326 629 351 629 420 634 452 583 533 554 600 558 637 586 628 565 698 538 628 543 649 494 725 422 779 413 754 383 836 383 790 355 802 438 839 455 830 387 792 295 780 225 763 218 811 169 853 109 814 128 826 108 895 107 878 61 898 135 890 158 915 215 960 201 976 140 944 146 962 135 897 140 927 210 975 250 977 274 978 288 957 378 981 375 928 342 975 373 907 381 868 471 846 388 830 427 867 370 890 356 940 403 897 392 936 416 983 415 982 427 982 355 944 359 934 339 959 376 956 344 953 321 881 342 887 397 930 430 947 417 955 450 867 357 868 321 879 333 875 345 893 344 893 398 843 399 841 489 871 439 903 512 919 531 895 551 924 551 917 605 878 631 819 653 827 709 890 675 946 675 866 702 889 691 903 710 926 701 931 693 970 694 985 706 960 739 982 801 921 819 825 815 810 835 802 911 856 931 944 899 953 875 961 928 950 897 966 944 928 856 918 851 962 893 942 839 958 874 985 883 985 857 971 856 975 855 975 804 960 829 936 788 863 818 938 899 881 908 878 849 861 839 874 852 866 869 844 820 893 823 892 874 967 784 943 767 973 793 877 721 897 684 887 775 926 755 916 770 846 769 826 714 750 780 689 867 674 861 657 944 603 975 606 985 585 958 575 961 582 981 577 981 479 989 508 989 512 929 490 940 454 975 390 961 405 962 405 934 430 907 453 969 407 986 346 977 389 970 408 934 490 893 491 897 536 879 478 879 478 915 412 859 470 877 446 914 370 910 355 888 343 895 258 857 235 847 178 831 162 810 154 816 158 798 151 782 95 748 91 715 35 732 31 797 14 832 44 807 86 805 57 822 51 854 29 860 26 883 102 828 85 810 46 741 90 757 81 736 122 751 28 803 11 779 22 802 32 842 25 888 67 834 58 771 76 767 95 784 108 875 80 945 66 984 47 983 50 973 102 966 108 961 118 874 117 795 132 754 77 764 101 782 26 792 50 789 48 753 17 667 10 639 35 597 71 609 46 608 41 651 50 569 44 584 106 583 112 612 85 607 82 641 28 591 45 589 78 656 95 590 51 570 60 555 141 485 198 472 199 443 206 439 278 419 248 422 152 486 76 541 114 593 104 552 116 522 46 558 90 628 63 691 112 685 103 682 75 716 71 686 24 688 32 673 119 643 168 642 109 679 72 630 17 722 40 625 43 630 43 664 77 663 69 621 80 597 78 583 90 590 82 603 78 604 75 618 20 635 71 635 73 693 83 773 34 771 26 760 25 789 93 784 103 778 51 852 93 804 30 761 31 841 40 840 49 823 44 880 114 889 187 834 257 750 296 779 281 691 254 645 313 624 298 639 231 609 238 598 227 620 234 657 323 652 330 627 306 629 257 671 254 700 304 643 298 665 247 696 233 727 300 731 398 804 441 729 385 797 430 801 387 850 456 820 382 869 442 928 466 880 480 866 480 902 447 863 475 914 521 954 549 952 547 957 502 964 437 968 404 935 460 956 487 983 461 893 483 980 507 918 535 977 563 927 484 950 578 927 618 971 568 940 521 938 567 959 631 946 665 927 662 935 651 947 730 957 757 917 693 874 669 872 666 882 663 853 705 838 712 792 645 777 701 736 641 741 601 712 513 709 512 727 551 736 536 786 501 785 508 778 457 806 465 872 467 875 468 894 457 857 456 900 450 908 518 892 482 895 485 835 416 764 349 847 311 762 338 748 323 737 315 763 263 764 259 765 253 766 276 776 288 804 214 804 215 802 195 782 170 754 151 790 93 749 52 687 43 673 65 756 68 704 65 704 65 731 71 790 46 792 44 799 136 740 162 713 195 717 294 741 250 754 221 675 163 751 200 751 194 749 195 782 190 764 182 693 201 660 280 659 280 635 227 651 245 624 245 672 189 631 279 654 315 725 368 726 378 713 413 732 343 802 339 878 351 895 447 906 495 857 420 765 392 758 377 674 377 677 303 686 271 645 278 663 309 647 334 657 341 624 357 569 386 580 467 577 468 553 498 545 524 502 522 434 504 381 560 446 621 495 605 495 605 559 538 489 503 484 507 557 534 534 541 532 552 593 546 592 510 594 504 572 567 578 593 497 604 453 583 472 607 462 606 470 656 478 671 457 579 446 579 445 570 451 570 469 592 519 569 518 569 513 562 526 560 568 569 580 527 500 560 439 552 473 490 549 467 532 424 497 344 552 333 585 378 539 403 580 335 583 310 589 308 628 218 620 197 632 223 695 248 729 199 652 202 658 197 678 143 625 101 622 98 598 58 569 42 647 18 705 59 728 92 722 124 727 125 787 86 798 124 790 118 786 123 820 134 751 128 765 85 777 84 824 95 831 62 836 127 911 109 931 57 933 75 944 73 915 141 834 132 809 146 899 165 932 147 919 137 930 136 935 127 925 81 936 47 956 40 974 119 971 189 977 188 971 178 971 177 965 173 933 135 906 40 909 80 883 128 971 109 971 110 943 97 909 158 848 156 900 73 906 77 865 38 858 36 850 36 905 37 893 18 829 63 878 134 893 44 868 69 929 63 928 32 954 59 956 58 871 16 827 27 813 33 787 54 780 79 722 68 745 100 743 95 687 88 710 66 731 40 702 12 696 27 677 41 671 50 650 51 597 113 610 87 546 59 527 16 458 14 433 29 415 18 440 47 392 44 348 22 341 27 385 56 391 44 405 137 495 166 442 174 416 80 414 80 337 86 343 59 328 127 359 70 397 64 406 71 447 23 459 90 389 70 364 87 380 76 451 24 447 29 416 54 358 119 375 46 421 90 504 55 502 92 441 61 436 51 381 120 367 84 402 160 357 175 358 172 365 168 363 132 349 34 285 50 " />
</svg>