<svg viewBox="0 0 1024 512" xmlns="http://www.w3.org/2000/svg" width="1024" height="512">
<rect fill="gray" width="1024" height="512" />
<path fill="none" stroke="#000000" stroke-width="2" d="M487 216 433 245 432 238 407 195 476 173 572 199 634 188 575 182 575 265 664 244 622 258 638 221 691 210 696 222 683 303 593 341 653 298 644 369 567 318 569 320 561 314 573 296 576 328 576 328 616 291 608 308 585 255 568 319 624 340 624 340 617 360 626 354 581 288 585 288 515 244 493 293 422 314 429 236 489 250 528 264 474 184 527 146 537 130 540 138 512 149 544 71 500 85 463 26 540 20 560 18 619 20 706 55 700 52 669 54 679 51 620 125 582 178 514 245 511 208 571 193 624 202 577 205 629 231 594 250 527 284 551 290 540 380 631 343 637 304 638 256 638 256 648 265 580 229 541 296 566 247 602 277 611 190 607 192 617 178 629 221 617 150 611 243 617 238 542 183 549 181 517 126 431 72 387 134 313 70 312 83 356 122 341 104 341 104 242 91 167 54 182 19 216 50 261 45 279 57 177 57 219 65 204 17 186 39 119 75 164 58 220 30 191 50 153 33 211 58 225 17 185 63 118 79 148 144 119 193 53 211 15 266 22 190 23 190 60 141 59 113 63 113 123 119 145 42 196 89 156 168 147 152 123 147 88 161 48 100 53 99 130 45 125 136 131 149 96 54 39 55 48 57 11 83 12 93 95 88 128 68 70 23 14 85 93 110 100 63 91 37 155 29 213 66 219 61 181 35 166 33 150 116 230 65 227 61 179 91 233 76 240 82 235 96 241 76 219 82 168 167 107 216 144 178 140 179 163 100 142 146 139 124 181 54 187 60 267 45 234 136 251 182 169 174 197 132 204 192 115 210 99 193 68 124 92 114 53 103 58 21 77 65 111 49 103 38 72 104 115 102 152 131 160 126 166 114 179 25 171 114 172 114 83 111 87 111 157 148 146 228 160 262 202 316 170 302 106 287 90 301 66 260 92 282 159 209 216 126 214 114 204 102 229 172 274 132 280 134 278 124 310 124 307 118 274 151 289 95 302 132 265 101 332 119 324 109 287 138 326 90 259 157 167 174 183 205 124 253 77 306 74 220 49 265 48 267 47 198 48 191 72 263 101 245 184 271 139 262 40 249 62 254 65 255 159 289 147 240 61 282 71 231 97 241 165 245 150 202 226 181 201 198 154 223 165 255 197 281 190 287 234 199 173 181 101 109 18 83 115 100 84 197 84 198 131 267 204 316 150 389 151 403 150 392 185 383 106 413 106 413 106 412 78 421 82 432 117 379 148 444 159 399 126 416 152 453 155 425 154 422 221 411 220 381 167 317 150 298 67 270 14 257 10 285 102 247 114 224 117 221 116 288 59 250 35 224 23 235 28 171 32 180 30 220 39 218 21 148 22 164 58 205 63 225 62 256 147 255 156 288 236 225 236 229 214 205 151 243 194 219 153 127 167 93 171 56 128 29 98 45 102 51 127 42 43 36 62 64 88 20 135 28 135 28 108 63 102 135 47 147 42 166 15 177 40 145 51 146 93 196 142 198 93 131 150 169 219 96 175 145 227 59 150 34 159 37 161 27 120 53 171 79 244 124 234 210 286 271 287 357 217 309 207 296 150 286 162 254 159 313 115 321 115 287 107 227 69 192 15 243 80 274 141 308 131 296 120 298 81 306 122 318 173 346 181 326 237 370 336 393 403 415 396 391 388 343 381 343 376 322 360 279 371 287 445 224 364 239 354 258 378 287 438 327 524 333 568 325 523 347 572 390 510 353 507 399 475 316 502 302 453 306 414 398 468 469 468 468 531 466 564 423 510 443 510 467 492 454 405 421 402 416 346 441 346 387 395 381 370 357 307 431 295 436 318 437 352 471 311 463 297 483 301 467 254 466 251 466 313 436 363 379 351 369 356 375 328 377 294 334 318 266 247 214 195 133 259 210 325 187 323 191 324 268 295 254 282 225 328 217 368 184 341 158 329 159 367 185 386 154 321 138 326 141 326 136 367 199 327 135 271 147 268 168 234 149 230 124 212 148 218 51 183 102 179 86 120 108 94 82 57 49 60 64 111 47 153 79 169 40 145 83 231 100 150 100 210 130 256 137 253 147 218 188 147 190 116 151 156 170 101 146 123 99 125 113 128 38 118 56 117 145 65 136 74 94 68 158 67 155 49 92 10 112 19 131 54 102 94 137 29 148 70 125 93 142 80 139 32 124 19 159 93 99 92 92 19 25 13 54 12 54 82 84 165 103 195 145 139 151 111 108 117 122 82 31 79 29 137 106 119 104 58 35 49 14 38 36 41 29 66 98 67 99 82 113 64 96 67 136 93 130 166 186 149 130 148 230 140 157 76 101 91 66 14 111 91 97 108 53 133 57 140 65 144 31 74 69 15 24 28 87 58 136 41 137 17 48 13 54 23 48 26 39 37 43 124 66 193 19 214 51 274 73 269 65 222 131 218 145 204 193 244 110 275 15 223 98 226 96 295 42 304 41 341 97 288 174 353 113 365 152 354 161 395 90 341 149 333 135 422 85 524 80 499 66 471 49 452 48 406 137 441 119 419 80 432 37 368 96 379 87 428 131 357 153 425 128 455 162 457 118 464 93 508 129 447 53 427 12 360 58 405 79 435 60 418 68 443 107 442 107 508 68 513 68 497 53 464 44 507 27 485 39 525 118 475 68 493 83 493 87 539 41 526 15 435 14 440 38 440 38 448 70 447 71 455 56 489 54 411 53 468 48 458 61 452 63 504 109 582 63 557 103 539 23 547 31 563 46 606 31 606 32 609 23 642 69 604 105 603 156 616 143 614 113 663 177 638 177 687 144 708 219 731 193 726 163 755 153 756 154 724 219 769 264 796 285 766 303 709 303 765 272 727 227 656 299 643 316 659 287 695 376 628 441 647 461 614 500 549 453 569 480 627 491 642 412 647 411 683 490 690 500 595 488 591 458 649 419 651 415 723 439 759 401 730 412 657 389 701 421 722 406 727 483 693 500 677 488 770 479 794 421 785 438 772 354 691 336 692 348 675 312 695 315 737 319 749 320 658 286 709 289 669 375 603 397 564 336 603 369 647 401 661 359 700 392 711 392 713 332 709 331 678 427 662 418 616 429 611 429 570 403 605 365 604 295 624 213 622 148 666 225 675 214 663 309 631 284 676 295 664 292 672 296 735 326 712 383 728 421 728 420 779 398 769 408 756 370 760 360 803 316 826 402 813 405 794 369 771 459 799 483 799 485 803 491 795 425 757 415 734 401 727 403 783 487 744 478 662 442 710 435 714 445 686 457 683 459 778 481 722 477 676 464 591 440 619 472 580 434 575 446 628 459 717 472 750 405 838 399 891 313 980 315 926 392 962 390 888 329 816 318 837 321 827 323 813 388 874 418 941 394 939 393 850 418 796 458 781 472 771 491 736 426 723 427 670 463 627 457 690 501 756 463 725 462 735 443 714 388 674 397 700 309 687 228 715 287 769 296 773 299 868 285 869 266 876 233 912 296 912 325 959 383 960 347 942 308 927 261 931 276 917 281 851 321 852 320 891 229 918 249 902 163 980 130 885 127 831 142 796 163 733 130 762 189 758 192 762 192 852 188 876 152 909 188 840 169 811 152 824 111 754 49 777 12 791 38 770 61 791 59 773 26 779 26 779 27 809 61 852 70 853 69 857 70 780 86 722 11 696 10 696 29 672 61 696 30 691 24 682 10 638 51 658 53 658 53 735 28 764 76 772 101 774 197 728 156 749 196 741 231 672 205 659 154 590 116 649 41 675 41 644 14 604 101 618 76 572 70 660 30 702 94 717 102 714 90 700 96 694 110 624 64 631 64 632 70 636 67 620 53 612 96 612 91 601 144 667 145 624 145 645 150 660 179 670 154 705 81 755 17 749 99 820 152 841 91 921 149 947 70 901 50 948 84 876 16 853 32 900 12 945 34 968 86 946 182 922 122 978 181 986 218 928 147 905 177 926 163 909 161 909 162 989 208 992 182 1003 208 1003 257 981 279 989 271 999 242 998 242 906 223 899 293 859 282 924 292 951 296 949 298 986 272 934 357 1006 395 960 390 962 492 891 425 924 421 918 466 838 441 904 475 889 393 825 456 781 437 812 367 888 304 902 310 994 297 953 305 973 247 919 292 1005 346 988 257 971 323 970 249 968 249 1000 294 917 298 907 289 923 309 890 297 868 243 889 252 948 248 898 167 876 202 924 182 930 131 913 160 924 250 918 205 994 212 981 286 985 301 998 207 942 179 846 184 853 122 786 111 712 115 729 125 720 192 788 265 822 213 823 151 828 151 831 111 804 173 871 195 859 200 807 230 794 285 874 277 873 280 828 252 852 237 935 239 945 171 945 244 976 198 1003 197 1003 198 972 149 966 165 901 137 849 97 782 105 854 87 857 73 795 101 794 100 818 123 840 66 828 79 781 62 778 33 773 99 746 189 775 186 805 220 797 187 817 281 803 266 799 241 768 200 763 256 725 281 710 275 688 339 696 374 665 350 653 347 690 347 753 327 767 419 732 349 732 350 669 383 673 410 660 336 687 326 776 306 755 383 820 317 836 397 900 412 896 388 828 394 863 378 866 367 841 459 866 366 875 379 895 385 897 390 832 324 890 358 886 354 850 355 882 315 880 253 884 253 904 225 942 133 944 148 920 154 966 115 963 114 975 22 887 71 898 72 874 61 870 56 796 85 808 137 812 148 811 150 816 149 810 174 800 102 809 57 841 58 772 59 866 44 914 37 917 42 972 105 920 53 981 115 981 107 1003 139 996 147 987 150 986 155 1009 213 1007 215 1009 207 939 218 898 166 892 160 891 128 920 164 893 168 870 98 843 99 822 40 780 51 828 83 821 12 766 51 682 57 706 59 664 131 605 180 653 195 672 196 667 213 656 209 664 217 665 227 670 229 627 171 694 130 709 87 649 112 717 124 779 86 778 86 826 17 840 15 848 24 808 45 845 66 874 72 908 98 961 148 962 226 1014 142 1003 147 939 101 888 124 902 203 876 175 821 154 775 103 696 85 691 175 684 173 670 159 681 108 723 106 690 61 748 96 725 54 713 63 755 17 756 17 809 64 815 139 823 185 822 187 806 144 802 62 787 47 747 113 743 123 758 117 752 110 668 137 748 97 657 80 720 104 716 26 707 58 676 42 660 40 676 31 649 17 665 16 684 92 696 146 692 137 697 149 700 146 684 214 695 185 697 177 690 249 756 174 766 178 780 132 812 107 788 114 857 104 934 47 959 123 957 215 966 219 990 212 1005 127 970 212 933 197 933 198 990 143 958 186 984 264 971 336 985 338 978 247 941 241 975 237 1014 185 1006 179 987 170 1007 78 1003 134 970 155 937 196 865 136 838 212 796 267 858 229 924 219 948 219 962 222 959 149 910 173 822 147 861 91 789 147 723 138 749 152 748 160 759 96 770 177 798 134 816 196 837 129 886 181 883 169 844 164 836 89 796 40 769 23 692 70 646 88 642 128 624 102 622 148 689 129 675 134 680 194 682 247 582 235 669 241 609 275 587 284 612 267 547 343 453 380 424 303 462 386 457 331 482 384 447 363 509 401 478 333 457 413 425 431 398 405 459 380 421 323 422 270 379 213 292 256 301 248 366 302 381 306 355 361 363 390 344 489 316 477 344 405 330 417 342 443 343 442 358 458 358 488 357 486 344 458 248 493 235 452 239 487 203 466 202 465 236 392 275 438 284 375 361 362 415 350 415 310 390 328 360 256 355 283 400 358 423 302 434 368 435 368 480 317 415 294 332 288 329 359 329 358 287 334 263 335 270 378 269 378 269 365 273 307 295 301 314 203 300 246 331 267 331 188 278 193 323 221 339 132 377 123 403 185 398 198 495 219 522 264 532 257 557 165 617 170 651 158 566 133 546 155 546 166 554 141 556 102 477 48 477 45 514 39 514 40 526 121 482 145 524 203 493 242 535 301 535 297 488 274 503 266 496 252 522 297 516 348 593 313 607 293 582 283 638 219 615 220 612 229 576 316 629 332 569 351 638 359 666 272 709 289 714 338 704 322 677 277 687 310 722 394 760 413 766 421 717 417 709 406 761 379 769 395 771 442 775 445 696 457 640 499 643 501 600 486 600 487 499 491 484 451 477 453 479 447 451 383 503 445 505 441 478 447 475 406 426 445 452 413 452 405 464 414 509 346 466 310 410 388 327 376 239 426 277 422 286 437 248 460 311 500 297 452 394 465 434 450 373 455 351 430 367 413 346 372 365 383 336 382 366 442 342 472 343 472 330 473 279 440 234 390 242 383 156 388 126 311 159 322 148 314 123 270 59 196 115 161 62 214 94 193 109 162 158 218 174 267 123 231 153 302 154 294 168 351 153 393 151 461 148 478 128 385 111 431 123 347 114 368 116 333 74 292 67 325 143 315 140 316 201 289 147 257 156 247 113 198 34 261 29 262 79 203 127 254 123 283 109 297 15 294 18 329 43 342 87 321 77 254 64 197 77 282 77 282 77 283 81 281 100 327 127 336 133 361 172 360 250 399 281 418 256 425 297 488 258 498 190 470 134 451 160 445 150 350 94 275 11 291 16 283 33 298 68 328 17 325 39 356 36 365 45 266 42 272 123 330 96 429 74 465 48 458 40 457 39 369 65 330 82 324 88 259 104 252 80 210 85 220 10 250 73 198 58 192 61 285 97 321 153 262 127 278 125 266 67 312 68 313 78 292 76 298 127 247 103 195 125 223 122 241 116 242 51 216 52 124 50 123 145 159 126 125 45 85 49 76 131 27 224 37 232 36 284 36 272 58 281 70 262 31 213 53 237 70 159 135 174 150 165 155 137 193 146 216 102 224 134 182 105 205 104 231 135 198 113 171 161 241 188 262 183 270 135 308 87 255 115 275 85 340 84 365 155 366 237 420 202 495 182 481 172 479 174 474 177 445 230 484 219 445 202 435 248 351 184 391 232 423 190 397 150 307 176 341 234 404 209 387 175 314 174 393 172 394 193 294 153 314 179 393 151 439 242 466 248 474 250 494 200 449 135 440 134 443 138 457 184 467 175 490 164 418 160 486 130 472 160 432 128 489 66 483 108 477 97 431 123 470 55 451 44 476 24 418 54 410 61 346 99 367 116 365 73 393 62 324 110 325 76 303 80 291 100 296 98 286 31 254 25 260 55 339 39 352 33 312 18 325 15 335 15 362 50 405 63 446 83 477 46 447 78 433 66 431 94 457 93 454 93 421 29 430 36 464 43 461 45 462 33 476 22 483 20 497 12 492 15 489 90 502 27 435 34 423 81 405 22 368 122 352 159 312 149 287 155 321 160 302 168 309 134 344 127 376 159 380 112 343 117 300 178 302 168 298 172 281 116 297 164 301 126 316 63 279 58 283 25 323 23 326 25 363 32 344 41 369 26 388 37 353 114 301 131 397 161 440 104 478 66 441 87 397 138 429 88 357 87 378 57 285 132 343 123 352 103 259 139 349 70 324 65 271 87 263 148 334 209 394 166 380 127 416 138 424 71 476 11 453 79 410 23 434 16 463 29 447 49 467 100 452 116 420 114 438 110 465 108 498 127 416 177 471 156 427 256 423 265 404 202 373 229 321 166 246 163 233 165 273 177 244 154 328 181 349 237 316 179 285 264 292 332 325 291 311 328 314 303 261 287 269 215 231 183 153 192 213 129 284 84 375 61 376 68 427 62 429 70 414 96 315 128 368 139 383 162 354 142 371 108 365 133 355 142 342 120 365 74 329 137 312 135 325 220 335 273 334 283 308 257 379 178 382 175 382 210 359 173 324 219 322 212 281 213 179 169 121 135 207 171 204 191 160 188 121 208 119 231 65 206 71 163 132 92 192 92 194 64 195 163 216 151 188 137 223 108 222 60 163 97 120 99 120 149 155 125 161 102 164 166 144 227 126 240 210 244 215 252 233 299 232 301 190 325 183 407 134 428 43 444 128 373 173 462 193 439 177 357 203 284 138 186 128 173 117 263 150 231 63 181 64 184 66 255 41 250 58 326 76 245 136 290 88 277 64 290 67 352 80 349 90 " />
</svg>