<svg viewBox="0 0 1024 512" xmlns="http://www.w3.org/2000/svg" width="1024" height="512">
<rect fill="gray" width="1024" height="512" />
<path fill="none" stroke="#000000" stroke-width="2" d="M517 283 561 291 579 269 575 263 575 336 483 354 519 411 438 414 466 354 499 358 442 274 481 334 504 354 547 419 509 418 553 353 565 352 618 354 611 379 583 388 587 402 586 377 641 442 623 390 602 303 596 301 600 306 640 284 644 360 557 323 544 335 627 280 681 333 654 324 626 326 648 402 647 402 638 346 599 277 553 308 560 337 645 376 644 339 687 394 669 402 664 481 664 481 718 446 727 459 682 386 778 352 838 301 828 306 848 284 862 291 870 312 852 342 874 331 839 362 783 341 782 443 828 445 783 398 830 480 814 500 830 435 817 426 849 483 872 491 846 441 799 489 786 396 847 424 832 444 793 428 715 463 681 448 620 438 670 455 695 378 619 366 592 299 647 247 582 312 638 239 587 270 579 235 549 192 526 181 441 199 407 178 436 193 432 129 456 105 467 123 494 130 511 150 540 66 531 26 544 27 583 28 511 36 451 112 375 66 297 19 341 87 345 107 340 71 356 42 445 71 419 117 339 80 339 78 317 121 279 111 209 58 219 16 219 18 209 32 285 31 233 36 197 129 204 130 290 136 307 146 307 146 279 193 342 224 366 150 349 51 365 112 438 136 400 226 441 225 446 155 418 89 435 86 432 84 399 102 364 38 412 94 460 79 503 55 513 74 595 46 630 88 559 22 544 26 526 109 548 37 550 16 471 33 476 30 472 24 481 18 544 36 537 20 578 20 505 38 512 54 503 66 513 59 496 123 421 141 437 112 420 210 475 147 405 97 427 134 427 134 348 159 275 96 273 127 281 136 279 139 284 147 306 177 227 149 260 225 320 210 322 209 369 174 397 179 299 164 241 115 244 136 328 89 252 34 205 80 198 30 138 35 86 31 104 104 71 105 134 157 93 140 93 140 155 126 84 65 79 113 61 109 44 84 125 46 134 15 140 14 151 13 183 84 104 55 93 33 96 14 85 88 44 135 84 128 81 227 159 232 178 295 182 298 207 313 247 277 217 246 211 248 281 289 222 210 239 176 320 183 306 149 332 213 329 183 337 190 346 189 385 142 375 172 340 181 321 186 405 135 355 200 357 203 421 227 436 288 529 249 592 185 650 265 620 278 591 289 570 362 574 365 562 360 573 367 644 356 660 366 674 374 760 320 831 314 835 310 825 295 822 310 815 320 819 330 816 338 766 283 765 305 805 281 812 193 816 126 865 107 824 165 843 171 826 237 773 302 838 329 832 386 788 442 808 418 809 413 772 437 826 469 781 456 777 450 859 480 861 488 875 492 883 422 880 412 968 459 1011 419 924 391 920 408 922 415 880 397 913 352 903 436 935 433 956 419 968 496 969 501 945 489 966 424 965 410 946 400 910 424 961 424 994 337 964 329 934 383 986 395 961 397 992 363 992 346 926 398 931 375 1000 401 953 439 953 439 971 474 925 488 912 476 921 448 899 441 890 402 838 320 859 312 935 337 919 368 882 350 871 352 846 366 773 382 702 405 656 441 629 470 688 417 713 432 674 396 593 381 625 336 616 287 607 300 679 250 714 335 727 374 716 437 706 502 718 496 754 483 747 457 825 437 818 435 826 428 881 487 907 501 948 475 950 492 969 437 976 443 965 390 955 418 946 448 958 468 931 412 944 452 939 475 886 489 886 489 823 414 721 404 757 392 768 340 742 292 754 235 765 140 761 120 774 137 676 132 696 162 690 194 690 193 691 169 718 245 693 344 636 329 579 408 559 384 540 313 533 305 497 331 515 344 518 354 601 407 547 416 549 416 549 427 532 395 530 421 604 434 522 486 523 490 583 424 566 472 573 491 569 418 546 372 574 323 555 374 621 375 607 378 601 343 644 376 696 292 671 385 639 359 657 450 595 424 626 408 613 382 540 445 485 440 485 440 407 379 325 417 260 447 179 396 182 392 174 380 208 409 138 461 153 365 76 376 68 381 91 322 73 336 94 393 10 348 35 358 35 363 58 268 13 308 15 309 112 314 121 390 187 352 185 306 186 304 224 301 219 287 270 289 183 245 102 251 79 273 15 293 12 286 83 313 67 359 65 309 15 304 41 292 48 240 34 227 40 127 25 143 68 189 146 184 164 123 97 174 108 172 103 173 49 253 55 276 62 217 27 203 107 226 86 137 164 185 102 139 60 128 114 82 114 70 99 114 39 82 11 102 90 105 97 102 62 85 132 64 108 47 175 44 126 69 146 46 122 116 107 68 205 73 132 56 150 64 112 64 74 111 11 38 11 37 49 27 142 15 142 15 147 18 151 19 131 14 154 17 85 23 41 81 30 93 56 33 76 30 96 75 123 131 203 178 145 221 143 244 170 236 191 331 218 349 179 334 233 273 243 284 289 329 288 300 336 288 400 253 469 240 464 244 518 280 513 264 508 252 445 194 467 209 478 194 503 260 501 293 496 246 497 245 446 191 540 178 499 133 516 135 516 136 485 167 508 181 431 166 419 133 396 137 385 112 437 129 497 195 408 168 385 173 428 114 412 26 496 32 495 35 546 26 460 19 457 16 478 37 480 36 472 77 496 54 513 108 565 71 514 73 545 94 468 108 464 96 423 93 406 154 408 123 412 23 413 36 364 77 412 102 375 163 442 102 412 112 403 122 358 160 329 134 311 138 286 157 286 137 276 150 337 146 375 83 402 83 329 47 413 44 437 97 489 98 513 112 473 193 455 221 404 165 410 231 401 232 396 232 435 164 471 170 419 178 443 197 383 249 382 350 460 304 397 278 398 275 347 213 369 209 297 192 356 131 277 96 338 62 383 60 378 60 404 75 382 19 455 23 425 98 424 94 423 55 413 75 402 105 415 146 439 132 508 112 507 127 570 151 557 145 563 118 612 192 620 183 636 194 639 218 639 234 588 218 555 265 525 192 526 149 588 199 589 245 595 246 584 222 628 301 682 319 693 263 632 301 623 290 621 289 594 261 497 284 507 259 504 336 478 297 432 252 430 253 388 165 367 131 366 142 354 153 335 151 264 166 254 176 287 141 269 119 206 118 172 124 205 52 148 70 123 131 117 133 160 56 159 11 190 76 195 80 110 119 34 124 25 85 31 81 64 102 63 76 61 77 71 80 146 98 163 147 194 104 163 74 162 115 175 117 175 118 169 143 143 198 110 248 60 164 109 186 192 195 164 212 174 192 218 222 261 247 282 264 239 257 252 340 252 345 168 352 81 325 153 382 107 445 142 349 85 393 85 393 171 424 162 424 174 446 183 483 130 496 126 480 153 469 171 424 140 434 93 451 117 486 134 450 136 452 146 398 130 423 133 440 214 411 212 414 213 421 204 476 233 467 199 434 152 451 189 489 181 487 167 496 202 480 174 445 192 454 195 459 223 463 231 462 295 440 320 482 302 466 287 481 295 486 227 454 233 446 204 417 143 344 76 281 174 259 169 266 169 264 134 254 125 194 184 200 215 242 264 176 306 146 379 112 395 18 368 27 367 27 326 22 359 19 359 14 331 11 331 56 335 57 255 29 197 65 142 13 132 72 168 63 110 117 153 154 152 114 149 106 145 107 207 60 249 79 227 114 257 190 222 207 221 274 275 234 309 203 257 156 267 168 318 144 334 196 310 151 306 165 291 167 291 74 265 75 185 76 211 28 203 104 203 104 193 61 286 21 188 42 258 70 179 72 177 81 237 118 230 106 251 109 276 180 271 115 349 57 449 55 416 83 416 105 399 79 360 18 336 67 320 67 378 54 459 20 466 46 454 36 423 44 394 49 411 105 504 85 525 53 516 98 512 82 578 153 574 128 536 72 565 42 656 83 617 142 611 116 609 190 519 193 485 139 408 184 398 200 391 251 395 268 394 329 466 311 411 365 404 363 383 301 359 254 373 160 399 129 416 169 381 110 458 118 536 74 514 74 535 162 590 125 620 99 624 41 583 79 561 110 589 63 558 120 509 152 487 162 464 140 465 141 543 177 557 172 551 169 630 140 618 130 556 147 626 107 582 59 576 60 606 123 623 131 588 57 596 53 538 39 469 17 486 78 497 88 427 155 459 89 504 34 480 59 493 47 491 83 551 128 562 170 573 100 612 95 632 31 638 73 583 125 676 112 620 86 569 99 580 43 573 35 501 24 501 24 473 62 473 62 482 83 465 112 501 125 484 56 492 108 421 153 382 101 301 50 303 48 299 55 301 88 292 74 249 33 266 58 313 93 280 33 358 26 344 39 269 70 195 48 186 67 151 29 177 79 148 161 143 160 145 64 151 73 139 59 218 20 144 32 143 42 144 41 177 17 165 64 167 56 105 17 101 19 96 17 100 27 63 35 130 72 106 81 121 59 135 51 109 52 194 95 192 110 293 120 301 125 264 130 261 126 269 130 267 123 263 126 330 119 306 187 341 232 421 288 406 324 492 326 550 292 481 236 430 261 405 268 444 189 503 132 502 132 473 173 532 203 560 116 562 115 584 101 629 70 620 121 691 103 694 105 749 182 758 185 717 204 711 167 802 158 826 130 794 37 744 73 743 73 741 100 695 114 680 76 624 20 634 16 698 64 671 57 705 23 744 72 745 55 789 134 782 189 775 188 815 117 848 34 837 39 847 57 819 66 897 23 909 25 828 42 791 31 805 82 805 82 858 48 765 14 671 54 679 47 687 30 690 30 693 34 733 80 764 114 813 184 883 140 896 172 951 213 896 199 816 171 819 96 816 96 879 92 874 24 918 31 854 39 846 139 824 134 836 155 822 58 796 51 787 46 741 116 718 139 697 215 690 292 770 272 844 301 887 261 821 277 867 268 790 230 798 222 799 221 824 206 757 265 817 277 849 281 850 273 887 222 821 183 816 143 834 106 823 104 893 97 898 173 914 157 937 97 869 134 888 157 899 148 933 215 963 228 945 204 868 229 862 230 864 225 859 234 769 239 821 268 821 282 812 238 827 183 865 208 855 188 882 196 805 222 809 229 803 238 760 214 858 225 853 230 903 267 994 257 987 264 967 252 976 336 912 354 890 401 885 420 884 449 855 461 839 367 915 407 992 421 921 431 950 375 951 358 1012 388 1014 429 946 398 932 458 926 428 985 368 924 338 921 421 931 410 889 486 859 491 910 481 968 480 967 478 928 457 950 440 1000 428 947 423 997 404 985 380 958 302 915 362 961 309 966 313 968 304 943 217 950 146 930 203 916 106 968 108 965 97 964 99 932 119 1011 54 942 22 872 79 882 91 905 185 982 197 963 199 979 197 926 208 908 220 901 196 907 177 920 192 871 160 898 181 894 210 843 161 901 154 882 157 914 151 919 146 917 110 936 91 981 133 924 193 924 143 1006 189 938 121 888 125 881 122 827 100 807 94 854 107 926 88 937 60 917 47 925 59 893 109 922 84 914 109 952 69 938 81 980 122 972 115 998 22 1006 28 958 89 962 99 947 102 939 114 880 91 894 112 834 65 883 77 920 137 934 150 903 91 940 113 906 74 901 89 856 18 907 18 878 64 888 147 845 84 801 105 830 163 809 215 752 153 841 110 887 67 831 118 848 35 855 66 830 42 840 58 759 91 805 97 813 27 789 86 816 53 768 124 841 152 832 164 852 257 901 300 916 313 897 325 879 292 945 340 957 318 982 349 943 321 943 321 1007 382 1007 376 979 441 980 443 943 399 916 398 926 369 912 377 973 382 992 353 995 277 1002 181 923 166 1011 147 1006 129 989 128 935 89 923 58 860 53 797 17 797 16 769 52 772 54 826 133 819 126 853 140 827 89 810 106 806 103 772 95 751 124 839 81 747 101 717 77 710 15 704 12 642 66 648 58 634 65 559 13 568 15 550 44 513 24 514 11 520 15 536 30 554 33 501 61 513 72 528 65 582 126 609 130 610 142 615 131 539 187 593 202 593 204 540 196 602 254 551 196 579 147 574 147 666 128 716 50 747 76 728 78 767 55 831 69 861 138 862 118 798 77 807 145 709 124 727 114 727 101 739 119 754 176 792 184 775 151 737 235 770 268 807 268 809 325 742 300 824 266 925 251 866 182 836 123 883 71 891 56 945 25 1007 42 944 49 938 56 857 73 831 167 778 121 751 38 765 111 713 56 743 57 793 64 820 72 846 31 914 24 930 47 885 108 912 110 909 180 916 194 830 245 832 189 830 173 845 171 933 203 891 172 900 163 877 154 959 148 919 193 901 207 830 138 790 109 771 55 764 29 696 64 677 64 686 30 684 81 728 126 744 125 680 135 599 128 603 133 610 116 606 184 687 177 741 114 770 111 766 97 767 71 696 67 687 64 694 61 708 66 655 35 644 19 613 19 611 74 583 75 579 50 635 94 658 79 681 11 673 10 757 12 813 16 779 37 782 61 788 85 860 78 915 71 955 14 1001 29 1009 112 997 74 1007 96 995 70 977 60 971 68 938 32 950 36 946 117 1005 168 911 133 910 119 924 117 993 75 968 145 968 161 872 178 888 121 821 129 800 165 797 136 763 83 735 72 715 85 713 93 779 124 725 43 704 28 643 18 558 15 559 15 560 16 555 39 579 17 572 19 609 77 609 77 605 59 672 98 702 41 696 48 731 115 731 115 779 186 776 185 760 165 759 173 659 168 678 152 623 148 623 151 607 133 551 123 605 139 663 91 672 95 579 103 648 82 629 98 652 145 701 216 681 250 676 215 685 221 697 204 689 215 726 272 693 247 706 254 758 269 682 231 671 205 638 183 641 253 666 234 603 213 680 222 691 213 660 197 590 212 570 212 553 205 516 205 468 227 399 211 465 250 429 212 357 283 296 317 255 301 287 291 318 278 234 249 206 330 138 323 99 390 79 449 77 450 68 487 83 491 89 463 189 460 228 453 201 485 204 484 219 498 302 486 236 408 232 395 269 440 366 451 384 448 405 459 365 481 313 397 272 443 291 499 304 488 298 484 244 465 235 473 196 429 166 404 108 346 121 346 49 354 22 353 12 387 96 339 109 397 135 391 149 470 170 476 119 450 105 445 26 487 34 492 81 495 64 457 17 370 38 353 19 415 36 416 30 432 125 425 116 462 32 431 36 446 43 494 117 450 118 385 128 417 107 400 79 421 40 412 23 461 56 465 92 438 176 437 190 458 225 485 155 461 110 481 145 493 124 430 64 421 36 464 33 443 27 459 42 456 45 447 131 409 132 417 108 359 73 346 77 341 82 362 72 436 80 362 18 359 13 372 12 394 73 356 90 259 12 297 11 291 66 249 96 203 102 205 12 242 16 237 83 275 62 220 24 172 32 167 20 115 35 94 42 108 69 105 61 104 129 96 65 138 63 141 104 50 110 97 111 99 69 22 33 48 41 45 99 35 121 31 64 34 137 92 155 92 133 169 148 192 104 186 94 185 127 226 87 284 128 327 122 345 66 410 82 459 43 422 36 454 54 463 54 465 47 451 37 468 35 472 24 415 83 399 72 398 54 400 103 438 101 447 135 382 63 450 76 450 82 441 148 422 97 451 78 452 126 487 124 487 124 488 105 466 132 437 89 499 77 405 74 402 63 359 42 330 18 288 42 350 55 369 131 315 148 324 228 320 292 284 360 211 376 231 381 198 450 178 532 174 620 128 539 179 539 184 502 136 530 173 563 209 533 211 598 226 593 217 562 193 608 158 621 225 532 213 546 274 604 312 595 390 578 348 598 309 602 377 638 327 627 331 628 346 713 342 651 269 596 224 561 271 571 294 541 197 599 267 614 208 624 278 693 224 689 235 687 225 612 292 690 234 676 138 768 93 765 143 734 196 727 194 686 213 668 214 744 147 802 76 768 109 741 90 681 127 749 109 757 68 801 81 850 54 888 78 910 156 889 146 887 141 872 224 785 214 810 269 808 270 768 271 766 280 768 300 758 376 762 467 771 405 777 371 753 450 753 449 742 384 781 478 733 492 755 458 807 470 " />
</svg>