<svg viewBox="0 0 1000 1000" xmlns="http://www.w3.org/2000/svg" width="1000" height="1000">
<rect fill="gray" width="1000" height="1000" />
<path fill="none" stroke="#000000" stroke-width="2" d="M484 486 485 418 398 459 393 421 385 410 388 401 400 326 398 328 354 370 357 404 320 413 276 378 236 315 260 232 262 289 240 247 228 238 303 271 350 222 344 195 311 195 349 230 319 218 347 269 359 310 384 259 384 260 430 276 447 322 430 289 406 202 402 196 408 143 431 130 425 73 419 57 501 23 456 96 435 146 424 85 425 80 421 81 436 12 356 43 377 15 412 17 472 56 466 31 462 29 399 89 412 80 496 54 523 81 490 51 515 23 513 18 534 39 546 94 537 115 548 76 488 109 499 114 497 163 471 141 507 176 520 199 503 211 506 218 448 202 450 235 453 241 452 258 431 240 449 263 460 308 458 308 445 331 482 305 441 277 422 279 424 275 364 213 421 192 449 169 432 180 442 199 533 231 615 235 575 238 557 196 564 152 631 203 619 219 618 267 626 258 629 268 619 172 664 254 711 335 748 365 715 451 703 482 697 508 720 573 753 531 776 494 860 456 802 413 807 422 737 409 775 398 726 323 792 361 702 355 731 403 710 367 729 275 746 348 726 256 684 256 765 215 738 257 814 220 727 258 741 273 744 252 795 182 743 149 736 124 827 148 826 153 869 210 791 193 784 273 707 226 798 261 809 173 793 219 791 266 692 274 739 239 741 239 700 212 698 130 698 148 682 228 754 228 783 266 782 270 722 291 722 291 713 218 757 247 799 238 877 247 794 283 817 197 791 138 822 183 864 144 874 152 888 182 842 125 797 133 765 152 767 159 759 151 703 103 706 81 674 80 672 78 732 100 793 156 768 235 775 239 743 171 700 142 683 86 703 99 677 90 612 46 595 40 615 80 646 64 687 103 732 119 787 56 789 60 779 35 681 26 711 16 805 46 793 44 779 98 870 70 888 17 883 13 907 104 868 158 925 189 965 141 948 173 924 209 925 171 917 155 960 164 946 109 950 125 965 122 956 113 960 135 980 60 947 39 929 43 937 101 964 118 957 125 935 132 910 203 902 188 884 228 943 283 927 303 972 346 974 340 987 340 970 340 926 388 927 371 940 448 966 440 968 441 961 442 946 449 942 443 938 444 986 503 985 500 961 590 962 577 920 600 937 558 932 562 934 541 941 530 885 603 803 620 838 712 814 771 749 696 704 784 752 728 705 777 649 784 658 850 705 782 724 745 786 756 771 754 801 801 784 742 687 748 687 726 631 752 569 740 542 679 568 709 545 756 610 752 619 733 578 644 587 557 593 539 542 574 576 536 544 480 483 465 506 488 480 557 575 537 571 576 540 669 613 723 620 720 607 711 640 659 704 729 683 746 719 752 685 830 680 852 674 851 585 828 609 881 637 913 558 908 460 906 432 948 430 969 383 961 441 927 455 837 454 836 462 824 423 860 388 786 327 709 278 713 236 794 236 794 220 706 219 710 178 777 222 764 197 696 196 791 162 707 146 728 145 677 155 694 133 687 136 727 128 749 121 773 59 816 20 743 57 712 103 730 89 738 89 738 180 701 180 701 180 700 127 783 127 789 152 712 102 781 53 792 37 849 39 837 65 834 60 762 32 691 65 680 99 627 95 622 101 601 109 614 128 592 132 644 144 631 182 674 183 678 181 764 223 782 145 801 112 836 107 833 93 816 88 815 70 780 68 786 135 796 167 809 142 812 180 727 137 725 193 706 167 690 164 666 115 749 130 664 54 605 109 575 106 574 115 577 144 618 146 548 187 489 205 548 238 570 256 542 239 525 247 519 274 535 308 489 369 494 392 508 477 456 420 521 390 614 398 625 435 639 395 625 403 633 329 686 254 661 256 656 245 661 186 641 256 579 197 602 233 552 246 616 336 651 383 676 378 668 383 674 326 629 337 591 319 616 361 677 371 706 363 705 407 739 361 811 305 782 403 773 469 810 535 782 576 834 551 798 558 806 639 753 667 665 636 593 633 602 603 581 678 595 664 555 662 600 667 594 680 582 682 586 738 569 744 639 699 652 666 614 659 567 660 532 627 544 611 526 606 515 687 501 640 516 656 541 632 537 633 537 639 524 629 452 705 477 784 463 784 461 821 489 816 521 870 451 896 541 912 546 933 548 969 489 969 489 955 401 968 402 970 402 943 451 945 450 927 495 924 486 930 471 943 465 939 460 973 434 916 432 910 424 959 383 945 399 906 390 890 430 901 375 882 369 941 302 962 215 931 165 860 147 790 86 884 81 892 31 855 97 774 94 820 49 775 72 807 100 773 99 724 123 713 113 708 75 657 109 666 81 678 51 664 50 664 12 644 108 681 152 703 107 752 34 771 44 771 43 776 38 800 45 799 62 742 86 731 84 771 160 762 155 828 125 815 122 859 133 862 162 830 206 765 209 750 134 727 215 774 163 738 108 738 107 746 151 747 187 733 219 743 298 717 297 726 324 756 301 755 301 704 361 714 363 713 368 714 364 717 365 701 364 705 372 737 361 770 345 825 394 884 432 875 438 869 424 845 356 867 343 876 369 845 354 852 415 919 442 918 437 918 527 973 582 887 593 872 599 871 584 847 632 748 632 732 654 733 643 747 619 749 622 811 626 763 591 743 512 753 494 756 500 666 511 628 526 554 471 543 445 553 354 515 329 521 276 547 269 567 342 545 353 496 358 446 313 516 381 501 461 547 472 507 411 549 329 524 356 602 363 604 377 686 399 746 425 731 493 678 563 679 570 690 565 701 615 701 614 637 640 606 560 639 546 689 600 784 619 703 593 701 581 654 554 654 495 600 525 632 542 624 610 660 522 654 495 704 521 688 516 731 475 754 484 728 462 779 499 776 497 809 505 785 454 806 458 765 500 806 494 783 571 808 595 837 635 837 688 777 714 840 792 829 785 869 769 949 781 891 820 900 808 920 876 929 825 877 840 793 852 786 852 817 858 818 856 774 838 711 814 705 767 692 711 710 672 733 653 676 579 686 646 686 646 702 670 711 673 706 685 753 734 750 747 696 671 757 594 758 571 781 517 780 512 745 568 686 557 688 556 696 565 694 567 615 542 609 511 610 512 633 466 686 528 682 515 729 523 742 578 768 580 751 496 799 448 786 453 727 473 723 556 711 511 748 566 808 627 841 617 783 601 743 599 696 585 686 601 683 558 698 485 771 449 763 452 768 453 778 427 807 357 808 359 804 358 806 390 804 360 847 287 878 217 939 158 912 224 856 172 871 132 851 106 761 140 788 171 779 187 755 193 725 253 696 253 730 299 747 304 722 386 739 363 806 422 803 457 847 416 793 395 747 477 740 423 690 408 692 418 667 424 727 435 758 444 773 465 759 464 843 452 914 398 924 464 842 444 878 443 881 449 868 455 869 466 877 470 859 423 859 422 865 421 842 510 906 532 818 549 816 554 748 578 708 590 727 510 780 445 780 445 863 398 831 327 785 311 738 297 710 236 658 259 652 248 737 289 697 256 741 345 663 311 661 318 679 390 749 366 745 342 831 298 837 297 809 263 767 235 770 241 814 268 811 262 794 231 785 229 823 154 772 136 831 119 831 119 838 61 805 137 884 135 804 91 773 35 769 50 705 19 717 28 685 80 759 111 747 86 721 125 721 126 800 91 782 120 788 120 703 162 706 177 633 244 674 166 727 94 732 125 648 106 616 104 597 122 566 114 562 90 573 89 502 135 496 121 506 137 575 120 561 84 486 69 493 85 549 87 514 62 476 67 545 26 613 13 600 87 609 63 517 72 456 53 404 87 464 147 445 201 462 203 471 201 475 206 492 231 438 297 428 255 462 227 511 217 558 137 500 177 492 187 467 209 452 173 444 171 446 170 463 246 445 227 403 279 368 305 390 302 446 269 449 266 455 286 472 213 437 229 457 188 481 157 541 191 520 159 518 249 542 318 582 338 562 341 528 341 548 266 508 298 463 220 463 224 493 252 458 187 429 145 434 89 435 91 424 150 401 196 326 214 324 221 348 131 335 185 350 195 345 168 307 185 362 183 345 106 360 135 378 68 470 97 493 107 482 114 564 137 553 150 487 203 492 208 493 209 407 211 398 204 453 209 481 225 506 233 532 322 522 400 515 384 515 384 490 396 544 324 456 343 411 422 420 429 460 446 454 445 452 441 451 432 516 394 516 394 515 395 590 370 515 314 498 307 488 334 514 363 532 383 579 349 596 302 549 304 594 246 518 279 526 251 531 252 548 257 610 246 636 215 577 201 604 240 523 256 467 244 481 268 471 299 505 251 472 264 481 258 423 245 503 223 493 220 509 252 482 284 568 254 632 294 598 277 594 278 594 302 654 226 652 230 698 198 652 178 643 172 586 91 560 98 593 92 499 108 530 73 500 105 440 89 342 97 386 124 368 44 441 81 486 34 445 52 460 24 444 22 442 22 438 14 458 39 402 33 491 65 471 46 451 78 462 119 539 64 536 58 581 145 573 151 582 139 561 108 547 16 634 30 726 40 805 96 805 96 758 72 805 66 735 107 734 104 808 74 860 32 837 18 826 19 806 72 867 25 789 38 852 75 840 97 816 94 809 134 835 106 738 114 725 61 721 132 676 180 674 179 668 219 665 224 673 276 680 192 662 163 675 161 661 148 702 201 702 244 624 238 620 247 551 235 537 257 541 270 539 280 455 288 438 307 528 300 500 309 527 260 504 247 505 215 542 137 546 181 554 152 498 78 577 69 651 44 655 43 705 86 693 53 680 47 697 79 728 57 745 36 767 35 796 51 817 52 779 50 806 90 799 123 742 48 727 32 752 61 756 61 759 57 743 117 717 136 662 156 728 188 728 188 813 148 800 194 771 244 791 236 792 240 772 268 775 271 778 358 841 345 876 310 894 268 896 264 894 280 936 264 890 188 907 240 932 150 891 160 906 126 955 177 966 163 988 185 988 219 957 221 951 227 955 273 955 280 974 293 985 306 974 212 897 227 908 140 877 47 878 72 886 133 825 73 746 24 649 45 689 59 701 109 785 158 805 142 758 124 762 121 750 118 717 52 681 49 672 124 682 104 642 57 641 46 651 45 553 42 579 68 674 62 654 56 656 61 677 56 676 50 645 112 597 39 596 93 521 57 511 93 512 90 517 162 450 144 421 168 479 151 511 130 569 112 499 42 442 49 505 61 468 79 481 40 440 72 513 20 484 84 534 64 589 100 586 94 572 138 610 181 578 167 526 204 509 216 529 203 615 236 612 166 588 203 567 132 516 70 614 89 595 98 574 92 570 111 552 51 521 59 529 108 546 138 498 188 474 209 404 265 503 275 500 279 556 265 572 220 572 215 567 214 654 197 716 201 681 258 716 305 700 316 714 260 729 194 729 193 741 225 755 173 737 149 765 184 690 247 696 285 618 347 635 360 682 355 598 382 601 386 633 372 614 352 642 356 626 331 653 417 673 487 665 443 657 432 710 382 741 339 688 355 648 428 600 435 599 429 603 385 521 352 444 382 429 359 478 409 441 421 499 437 534 403 537 386 561 390 497 422 461 357 481 408 546 341 543 264 535 265 534 265 549 286 581 298 535 265 552 207 555 213 633 218 635 166 559 156 544 115 543 115 612 120 684 166 750 148 770 167 849 119 916 53 988 103 910 57 884 49 899 14 863 19 798 14 831 71 825 142 808 165 847 210 842 224 827 155 781 198 813 205 771 231 775 256 773 257 674 253 657 282 634 246 671 241 689 264 709 286 695 283 633 328 649 288 706 219 660 228 646 227 561 270 544 339 603 400 635 444 613 448 568 433 561 420 583 360 547 417 460 398 452 366 490 346 477 271 474 279 511 319 435 260 452 325 517 336 504 311 505 307 525 393 589 378 532 317 500 264 457 230 406 285 473 245 439 325 483 360 474 337 480 302 423 346 340 391 336 389 388 371 381 414 388 406 391 439 329 478 328 477 309 465 353 514 348 508 339 505 372 513 371 527 402 529 418 604 459 514 470 594 507 565 501 586 533 637 524 650 524 645 567 702 490 648 529 567 523 615 456 629 489 632 483 644 560 667 566 762 522 695 551 727 520 702 438 646 389 641 434 620 525 626 524 625 455 688 454 688 481 673 485 664 492 622 422 634 351 617 400 596 391 580 441 537 516 573 572 541 588 536 631 608 697 676 701 707 649 635 579 610 637 671 586 680 585 679 571 628 566 578 501 590 501 686 454 676 454 687 421 719 436 750 437 721 384 718 371 732 352 729 445 733 412 729 413 657 413 696 408 695 362 607 384 552 438 541 489 511 515 581 544 596 559 691 502 675 596 644 530 634 524 637 519 635 513 631 571 562 586 533 531 517 497 457 498 460 482 449 529 367 625 344 549 302 575 287 554 353 610 328 609 330 558 310 528 311 515 306 533 299 554 322 525 365 486 295 518 331 589 323 637 240 624 161 642 149 608 131 612 118 580 60 614 44 576 53 635 19 570 76 576 71 667 81 638 62 627 114 615 196 550 205 561 188 536 240 534 202 494 147 490 227 498 313 498 321 467 301 468 284 449 310 409 352 444 411 416 393 442 324 360 358 311 328 269 348 279 417 266 420 277 470 222 423 270 441 304 418 309 406 278 333 354 345 368 401 395 395 376 340 464 361 454 438 401 510 364 497 422 435 434 438 388 478 408 486 490 478 555 502 650 524 661 432 652 439 655 396 696 317 696 358 684 304 693 282 603 283 623 265 672 286 664 300 655 346 725 363 720 361 707 325 703 312 713 398 754 451 808 439 808 444 714 420 795 391 792 306 765 317 749 253 762 302 804 353 851 371 883 313 818 328 824 261 825 266 744 312 732 269 749 278 743 337 718 342 722 353 732 348 761 312 690 287 690 287 672 272 634 349 646 357 661 373 693 367 719 290 771 367 775 365 757 320 749 282 702 259 644 215 691 232 651 276 670 241 665 240 648 169 691 162 676 179 602 192 569 183 610 252 544 313 498 340 535 396 533 393 475 460 543 445 520 521 490 468 434 457 500 468 519 517 451 469 400 533 405 488 409 506 465 530 398 535 407 489 481 472 428 401 357 458 333 432 328 410 330 412 308 441 370 379 451 339 477 368 476 360 465 420 450 430 494 432 448 448 510 435 463 450 464 449 378 451 407 456 360 428 346 456 432 485 447 536 507 457 548 428 507 432 516 379 481 347 436 425 407 510 351 466 346 463 417 397 386 325 365 231 331 204 312 272 321 314 298 313 271 359 283 376 358 332 401 253 416 268 511 249 483 267 484 270 484 269 489 253 490 215 477 207 541 234 549 218 496 242 506 219 588 252 561 235 574 229 538 171 542 139 465 193 470 215 513 186 504 90 512 115 505 103 500 182 525 121 562 196 550 235 561 319 586 262 608 256 635 303 695 374 727 356 731 356 756 266 740 338 740 334 782 393 774 422 805 417 826 500 829 467 791 428 827 457 799 518 797 537 829 478 820 499 848 553 818 579 780 553 843 562 810 564 800 564 802 568 820 654 854 741 813 718 812 668 824 666 810 654 864 638 779 621 791 630 797 631 796 646 773 597 695 608 789 636 775 631 815 618 834 606 822 532 832 434 802 450 824 473 825 474 909 519 896 535 957 563 969 658 961 639 968 666 965 648 977 662 976 669 959 685 984 639 910 655 891 657 824 611 784 615 739 673 780 599 729 606 788 553 815 476 846 503 857 567 847 485 836 504 838 474 926 466 945 551 944 551 869 520 849 540 895 619 961 550 964 555 987 553 989 516 894 501 887 494 887 492 848 457 944 475 942 453 856 453 858 528 851 497 800 578 837 524 857 618 871 573 896 557 909 627 877 597 953 644 960 641 960 649 981 553 933 567 976 573 979 559 943 628 926 654 984 627 950 608 916 607 916 607 982 551 955 489 888 436 817 423 837 407 782 454 782 454 792 465 733 407 695 443 677 434 652 414 634 442 633 442 545 434 458 435 502 442 498 460 444 436 462 422 408 484 404 485 416 414 378 341 424 315 413 335 378 331 372 336 392 304 387 297 389 283 319 272 318 187 358 261 282 260 260 290 355 318 352 287 350 286 351 282 345 328 350 329 350 327 356 331 340 274 367 334 405 349 390 267 430 262 435 269 388 227 383 223 444 208 452 300 401 326 376 267 418 295 422 295 462 314 386 361 302 372 319 333 306 417 359 487 330 581 256 597 220 534 254 546 209 593 253 621 311 674 309 575 308 587 319 560 341 535 336 537 247 561 234 547 247 468 326 445 334 466 295 483 273 510 274 509 265 533 282 543 231 494 213 468 253 443 174 423 192 368 250 371 233 383 281 438 268 420 280 427 282 421 280 454 295 454 260 448 227 412 307 413 320 447 276 479 258 483 185 489 169 470 234 431 211 477 188 479 210 461 163 393 121 383 136 311 137 312 193 330 222 421 246 415 272 448 202 397 164 456 171 432 179 482 161 479 186 487 103 503 125 432 50 467 53 480 59 556 41 528 136 511 174 506 158 494 143 577 148 579 147 632 152 675 80 614 62 707 103 688 83 702 119 720 154 659 227 623 247 643 245 717 246 714 255 640 242 656 231 722 165 733 155 725 178 717 124 706 153 740 154 751 193 666 169 673 158 710 83 659 128 699 97 713 93 723 115 645 114 682 104 623 51 633 90 588 36 569 43 592 81 546 94 552 66 471 67 471 28 484 15 426 53 389 20 402 17 378 43 421 57 444 96 353 181 325 182 342 133 381 194 457 186 426 193 410 149 438 146 342 188 389 158 329 84 319 142 302 138 341 80 348 151 313 61 303 " />
</svg>