<svg viewBox="0 0 1024 512" xmlns="http://www.w3.org/2000/svg" width="1024" height="512">
<rect fill="gray" width="1024" height="512" />
<path fill="none" stroke="#000000" stroke-width="2" d="M547 256 531 225 544 211 521 114 487 131 572 97 570 101 615 179 632 101 655 80 649 87 691 84 658 83 727 85 801 42 800 52 805 39 809 12 808 32 767 108 796 126 838 46 894 68 907 90 933 89 915 161 918 156 837 176 866 117 787 140 709 184 735 256 644 218 723 270 793 229 763 252 809 339 735 388 742 371 781 453 743 382 708 406 796 355 822 342 730 304 643 280 603 334 572 371 593 361 597 314 597 223 519 194 547 247 534 259 565 260 485 214 483 209 582 233 527 191 593 204 671 231 682 266 693 349 716 326 751 358 767 361 684 398 681 386 706 369 689 382 707 383 710 414 703 459 703 458 680 457 710 370 681 297 622 265 678 241 674 321 617 374 592 314 547 327 630 289 645 335 637 235 624 250 638 294 600 242 645 262 657 255 665 262 681 236 685 205 708 262 704 266 705 252 625 298 620 304 619 300 678 343 699 406 637 453 631 493 626 463 617 448 620 448 686 466 746 410 667 393 669 447 665 425 692 365 705 387 658 465 662 464 671 462 695 380 608 352 624 281 657 230 592 164 613 163 643 226 589 181 535 111 553 112 533 148 535 160 517 199 537 260 492 277 494 277 413 285 417 272 462 216 379 263 382 265 375 254 461 203 523 218 493 141 501 140 467 196 433 248 429 317 437 332 440 321 402 304 409 346 491 405 538 430 502 431 504 435 519 450 583 434 588 367 586 352 571 392 572 396 593 390 592 440 640 449 577 427 611 486 602 487 630 462 661 365 659 353 652 351 643 366 590 315 579 372 569 299 607 315 625 317 639 319 646 325 666 325 746 302 678 355 681 357 667 350 630 409 629 401 569 378 558 424 553 488 526 438 542 465 498 468 519 480 613 445 616 444 615 444 653 462 591 431 651 497 678 471 730 460 706 469 722 480 648 472 650 474 633 488 620 462 645 471 625 378 616 451 600 368 621 292 649 257 667 266 650 270 636 356 634 365 614 376 636 297 627 212 615 207 524 200 535 183 593 158 654 169 693 225 689 310 635 245 626 252 695 276 677 265 699 259 704 195 720 247 682 173 675 180 644 185 603 255 629 157 624 158 606 143 548 72 552 60 555 58 471 94 508 22 482 52 482 40 444 72 537 104 483 135 478 196 454 166 418 206 420 201 474 261 488 233 529 223 446 232 419 142 452 162 506 186 479 187 455 228 423 261 516 234 485 224 512 302 446 295 505 328 485 406 488 421 401 453 487 401 568 368 639 349 668 367 702 405 713 397 740 349 794 425 801 431 788 416 796 333 722 386 707 387 707 388 748 296 742 277 798 336 810 413 831 392 835 375 915 365 901 305 893 338 902 354 817 323 824 314 854 369 806 331 743 290 737 279 783 325 691 315 707 379 786 345 790 346 830 315 767 302 682 348 633 324 694 326 651 324 650 402 700 407 751 470 758 418 756 411 829 429 792 379 841 329 776 297 788 308 861 255 918 288 846 234 840 135 870 203 866 233 920 297 928 307 926 308 898 247 895 288 896 287 831 321 832 331 811 330 799 290 800 270 799 259 794 278 724 274 656 281 679 295 649 332 721 306 703 342 748 348 825 375 915 357 903 354 829 360 857 394 952 387 951 462 927 460 871 495 801 482 805 491 805 465 759 393 734 370 731 370 771 319 766 255 728 308 816 340 754 318 736 320 740 345 687 362 684 434 766 420 765 420 786 434 804 458 835 390 843 334 884 332 948 372 956 368 955 370 950 371 962 369 1010 456 916 430 944 445 956 350 934 433 843 450 756 416 827 472 831 398 848 355 916 298 916 315 948 302 1003 268 992 234 956 276 939 305 926 296 898 357 858 370 864 346 849 309 823 296 782 368 824 330 874 289 963 272 998 289 956 340 919 357 950 356 998 307 947 350 966 390 930 481 953 491 920 498 945 498 995 484 896 467 853 443 858 444 913 435 898 391 911 462 878 497 837 457 824 449 840 441 845 438 847 470 850 466 840 486 828 478 837 484 826 487 874 411 837 407 865 445 864 452 946 461 998 480 972 446 1012 498 979 476 995 492 964 433 981 433 953 462 876 426 900 429 922 413 889 353 838 401 781 409 759 450 737 480 738 464 779 376 797 391 805 407 826 426 902 388 928 402 907 439 877 447 912 439 975 396 1012 335 950 322 945 323 958 279 941 290 923 297 921 303 911 329 911 321 920 414 941 398 960 414 946 412 941 425 992 448 993 445 898 419 873 453 868 432 867 427 945 462 909 445 907 453 960 438 889 420 816 490 774 468 831 395 811 355 901 396 822 370 852 382 898 334 865 297 888 318 936 280 935 286 981 319 906 359 918 262 917 250 941 238 975 218 1010 273 999 287 917 248 925 327 919 229 905 195 903 198 899 198 892 221 899 192 837 150 923 137 923 49 970 133 950 113 927 68 922 78 829 120 818 110 836 103 834 115 818 45 787 96 745 112 790 123 799 135 851 159 906 109 910 158 922 170 919 172 911 182 945 187 952 188 916 167 920 190 936 231 850 248 774 291 767 291 759 326 699 257 646 282 646 283 615 300 628 321 623 320 648 373 646 367 634 310 610 319 630 323 664 397 676 403 668 478 633 496 655 435 642 390 664 318 685 319 630 270 601 300 606 323 579 339 577 340 634 342 675 372 730 346 683 293 715 303 730 307 747 311 769 230 774 234 822 175 786 271 767 254 684 254 677 250 590 201 535 167 523 107 557 175 498 169 500 167 503 182 536 158 575 180 576 183 485 205 526 223 520 123 429 122 407 128 324 157 341 117 353 50 355 47 339 27 367 115 350 129 338 170 296 98 348 112 321 17 368 59 422 102 441 70 399 87 322 22 385 99 316 110 231 117 306 162 304 189 376 245 391 227 379 312 446 340 424 392 418 394 363 361 383 354 362 442 428 445 466 471 439 465 378 416 448 342 516 411 468 488 384 488 404 398 411 411 509 435 496 385 492 381 462 391 392 408 394 395 346 378 361 427 377 459 384 493 412 471 484 451 402 461 386 459 304 431 387 458 338 454 341 403 388 385 324 408 383 473 476 478 467 463 469 464 385 494 285 497 288 481 296 474 270 488 316 499 314 493 285 421 317 472 313 473 282 451 284 452 288 402 266 368 277 380 295 410 308 416 358 469 299 386 315 414 235 470 247 428 238 450 238 440 266 406 279 382 271 405 279 488 254 500 223 487 152 483 106 419 117 380 123 461 124 462 39 406 12 453 27 465 17 464 92 413 85 318 138 373 108 457 108 457 109 419 88 376 75 391 86 326 87 324 90 336 136 384 146 477 176 459 194 420 152 422 174 397 154 403 146 402 94 405 127 391 120 356 66 343 14 300 17 296 11 306 28 304 31 342 55 311 42 364 55 379 53 412 34 398 15 481 24 466 18 385 46 428 72 333 87 428 68 409 38 436 34 439 53 494 58 497 45 418 53 392 115 334 113 432 163 460 128 443 98 488 96 501 72 499 94 489 76 462 65 463 79 462 68 436 76 467 135 480 105 413 124 448 153 407 232 440 295 380 319 355 283 421 255 419 262 408 272 358 267 364 334 372 338 405 265 344 290 339 296 345 296 345 270 374 205 401 196 471 202 486 299 500 207 469 115 450 116 413 97 399 113 367 178 383 205 385 153 371 128 352 49 405 13 398 47 456 75 409 121 354 62 322 52 409 30 312 102 357 106 410 36 385 56 480 56 478 56 477 44 473 42 401 29 415 94 482 95 482 96 478 41 434 49 451 24 377 34 362 47 363 61 376 75 387 37 348 37 348 103 349 69 369 49 389 23 299 71 308 58 283 56 320 16 384 16 299 80 234 110 248 83 201 99 200 126 231 116 150 148 134 96 152 109 160 134 178 159 168 158 166 100 155 179 195 203 230 202 209 247 152 169 114 68 108 29 18 45 90 46 92 42 86 82 146 102 170 176 149 164 151 140 98 92 164 52 145 49 151 44 134 25 166 14 205 38 200 39 212 86 257 93 227 88 142 23 114 40 112 48 93 96 122 144 141 102 80 113 67 112 65 113 89 46 75 15 48 10 16 92 38 114 55 128 56 120 49 176 49 163 69 219 136 248 40 268 60 268 60 208 112 238 110 235 136 253 141 192 91 214 39 239 97 252 114 300 135 382 80 461 52 441 11 425 18 393 30 409 124 387 52 384 78 425 52 369 91 301 104 369 70 335 27 299 20 365 60 363 52 373 76 365 60 293 62 283 107 295 113 306 145 316 139 319 125 316 113 296 85 334 66 342 21 353 31 385 44 383 102 414 151 397 227 364 245 339 252 423 211 483 145 452 177 460 184 460 92 491 131 477 136 467 168 420 195 395 202 400 198 336 239 377 296 327 362 369 391 387 379 340 418 361 365 311 361 316 325 371 340 363 325 331 275 360 345 412 313 373 254 368 306 365 369 409 426 425 400 403 481 360 434 389 446 317 449 321 465 308 463 311 444 336 421 341 395 353 424 364 488 313 428 308 419 333 352 308 360 284 279 332 204 282 223 258 247 218 323 169 351 121 360 101 277 99 293 104 373 103 388 167 342 171 340 168 340 178 353 133 400 141 401 112 391 58 361 78 332 135 368 129 343 51 278 48 276 47 276 41 226 56 205 20 140 19 140 20 135 50 145 34 143 32 153 40 167 28 156 55 161 87 93 19 102 30 98 71 89 34 81 48 17 55 34 58 31 85 21 86 21 96 94 86 113 69 56 110 146 137 173 111 167 131 192 177 282 135 226 213 171 218 163 225 161 198 164 194 258 148 267 153 173 160 171 176 145 206 91 203 84 180 56 148 39 120 91 94 88 146 127 75 183 111 191 76 123 150 135 119 166 117 244 69 270 58 193 67 203 40 220 90 293 16 303 95 318 119 385 40 450 39 457 40 390 54 417 81 438 89 427 52 438 69 394 55 352 58 346 115 362 126 363 172 307 222 353 185 389 99 336 117 319 82 348 141 277 221 262 228 270 198 324 126 370 135 399 39 415 45 421 46 420 114 434 114 434 75 400 88 446 126 470 194 426 151 458 103 375 186 367 205 393 139 435 142 434 125 409 135 384 144 323 138 342 162 322 186 409 227 403 165 418 179 431 107 449 158 385 245 389 243 472 217 403 228 475 227 490 224 497 250 500 349 491 347 485 338 446 296 428 295 415 251 418 206 403 211 430 199 434 145 396 122 416 156 394 170 398 84 394 55 356 97 362 83 422 36 423 78 414 171 381 131 376 214 346 240 356 254 375 282 390 316 408 349 356 448 373 462 388 475 386 497 371 475 436 436 441 443 415 396 359 312 381 249 329 229 343 255 382 181 400 215 417 223 347 278 330 278 313 249 371 251 366 185 441 122 439 204 477 153 444 205 501 141 482 142 449 214 466 211 485 244 482 241 489 253 487 255 479 270 451 247 414 260 433 269 340 293 377 301 374 393 382 478 380 468 350 409 432 324 479 324 480 317 462 317 474 355 461 327 453 339 452 299 449 374 453 340 416 371 449 331 363 330 388 334 351 297 284 271 300 216 233 219 232 260 228 229 298 240 289 212 331 197 345 195 357 270 343 356 366 372 394 407 357 347 436 362 462 370 460 342 475 301 502 277 489 329 439 316 420 323 493 326 472 326 415 337 385 268 349 310 278 212 273 164 301 224 220 230 223 183 301 276 259 264 277 292 260 390 249 392 263 434 190 450 280 385 259 391 262 394 176 347 200 296 228 269 152 325 138 401 129 486 175 529 174 494 158 566 205 546 198 478 183 490 282 534 356 503 323 508 324 492 287 492 387 558 340 559 344 547 336 452 341 447 343 460 301 424 245 451 272 442 361 430 347 411 420 417 421 497 378 473 447 476 459 395 396 441 319 472 292 474 290 468 290 478 292 520 383 449 334 400 354 403 411 317 427 290 422 329 491 322 488 331 419 390 482 427 406 389 371 398 339 431 362 413 351 505 371 481 338 523 410 563 412 562 412 521 455 526 500 529 500 559 465 619 453 659 465 661 466 643 495 643 495 645 493 633 487 601 425 615 407 637 370 640 375 604 393 585 427 607 336 554 321 604 399 621 456 593 467 506 448 456 418 448 405 440 386 426 374 437 370 370 375 350 388 364 400 360 403 344 321 365 371 275 340 281 423 287 348 284 363 314 296 399 333 424 300 424 299 328 280 334 271 258 277 189 222 174 215 163 237 169 284 191 281 216 292 175 340 139 317 144 306 134 211 132 226 216 191 261 142 282 117 259 46 254 146 296 155 237 237 150 203 170 205 152 192 213 169 170 98 160 147 140 96 155 89 112 132 123 132 130 121 118 79 91 51 76 124 77 87 83 111 108 82 110 79 102 81 135 150 122 150 129 208 219 214 199 294 276 273 191 247 173 223 185 233 263 219 298 259 352 340 316 361 310 369 362 418 406 444 449 408 440 392 414 296 407 335 407 343 375 325 451 288 386 228 385 217 403 296 336 281 342 342 342 313 302 306 287 401 261 437 193 425 203 419 292 439 389 413 334 355 338 402 406 352 386 287 397 275 462 304 487 333 518 300 557 358 481 300 531 340 570 317 619 263 635 276 645 278 694 208 713 303 767 300 771 297 797 329 802 420 846 344 844 349 847 441 799 452 805 451 763 411 741 412 733 429 769 438 670 461 620 462 620 462 674 500 719 444 801 473 799 478 806 429 802 425 844 406 818 378 812 373 866 341 850 355 921 322 884 274 899 283 901 293 897 294 849 351 896 361 882 314 905 317 906 371 921 381 936 306 1011 308 939 374 979 323 974 319 884 318 887 315 896 319 901 396 880 385 903 386 912 372 949 370 952 351 935 343 842 384 868 363 883 433 880 414 876 441 969 464 994 419 961 410 950 330 948 329 991 282 976 231 992 228 994 161 895 176 826 215 795 311 883 278 931 341 958 324 860 351 814 359 826 368 815 309 803 310 777 319 723 397 787 318 763 301 743 290 722 198 713 200 785 199 845 121 834 150 863 83 849 98 803 92 830 17 915 26 850 60 888 54 956 102 946 74 997 144 981 176 969 207 875 205 929 196 950 229 994 152 991 96 959 86 966 86 945 69 1002 113 982 126 1010 108 1002 110 937 70 912 112 974 73 991 87 982 137 1005 234 1004 235 1004 308 993 303 997 292 1006 236 985 272 982 368 980 377 923 386 914 423 877 351 853 361 878 394 881 401 881 398 911 378 942 386 964 386 941 366 979 387 962 400 882 459 914 441 901 461 876 470 867 414 792 369 777 366 789 348 731 343 730 354 806 300 803 381 790 422 757 496 712 416 701 386 683 363 678 368 770 339 778 309 847 318 857 218 896 257 894 305 912 385 870 346 868 352 918 385 895 385 850 476 796 494 778 415 748 371 720 380 706 345 725 339 803 369 821 346 833 253 840 238 840 213 821 142 822 137 887 105 808 131 801 130 802 132 864 87 906 45 913 40 912 42 984 29 984 25 953 20 935 14 919 13 987 54 977 86 930 117 926 142 983 129 971 135 922 83 927 20 956 56 964 65 964 73 957 53 899 32 867 63 870 57 787 76 779 64 813 151 805 57 791 15 793 14 829 84 827 23 828 48 832 51 830 45 873 88 909 93 905 108 876 62 807 107 815 149 762 100 845 95 855 168 868 159 883 184 917 198 880 218 881 305 883 296 847 260 858 184 872 146 874 128 819 92 794 114 780 129 774 100 782 88 792 89 754 69 796 30 776 72 872 91 933 113 888 130 887 127 844 143 770 132 814 174 770 209 774 205 796 225 741 265 735 267 707 253 653 275 645 220 635 169 718 147 720 136 738 106 664 37 665 29 685 87 653 58 599 54 639 25 665 18 621 61 633 111 594 137 583 120 620 124 585 79 606 135 558 116 540 114 457 84 484 61 438 48 463 22 478 17 512 24 526 16 575 17 652 51 721 92 629 64 686 86 728 22 816 41 819 38 801 61 865 90 865 76 792 142 797 156 837 135 834 108 841 156 778 192 706 214 690 134 663 138 627 192 596 206 497 212 494 238 502 154 569 226 540 187 551 204 604 138 648 152 609 126 566 148 559 127 593 135 564 203 553 198 555 190 511 102 410 113 508 130 521 168 553 132 553 132 475 82 448 75 516 106 " />
</svg>