<svg viewBox="0 0 1000 1000" xmlns="http://www.w3.org/2000/svg" width="1000" height="1000">
<rect fill="gray" width="1000" height="1000" /> <path fill="none" stroke="#000000" stroke-width="2" d="M479 459 485 454 485 517 488 515 544 533 564 463 552 432 546 465 540 454 584 523 520 523 522 535 543 529 593 531 594 462 565 451 565 441 571 420 546 447 582 456 550 459 589 494 569 493 545 487 568 444 536 463 541 462 535 459 538 461 587 462 613 464 611 510 567 509 567 524 529 527 527 543 558 571 531 570 496 575 495 584 471 584 482 552 477 531 408 500 416 539 346 539 331 545 363 495 354 496 322 511 300 516 294 492 286 448 305 450 299 464 261 456 261 450 272 461 224 470 230 459 177 537 152 547 147 548 148 554 109 520 73 516 81 533 114 499 89 492 94 481 75 478 108 436 90 406 146 367 191 364 186 324 208 326 238 300 239 292 251 268 306 268 242 289 251 281 263 282 172 249 169 257 150 249 133 242 127 252 140 255 138 206 119 204 25 200 25 162 50 149 42 170 22 157 22 158 22 138 22 137 79 145 84 155 72 140 132 138 69 143 81 96 35 87 35 77 69 110 153 56 221 19 225 74 234 77 237 40 237 60 237 63 202 30 201 11 215 26 242 38 242 51 302 36 266 51 216 49 214 35 203 28 148 28 202 34 200 35 245 33 292 45 322 26 387 30 414 30 408 30 371 37 386 54 332 92 346 87 354 82 372 131 385 168 312 142 254 151 205 113 184 85 142 113 145 124 161 105 229 109 183 120 162 174 174 227 148 233 227 229 237 279 169 327 142 325 198 330 229 327 250 273 179 211 175 293 127 222 85 216 82 182 84 167 96 165 158 162 206 159 202 148 245 177 284 221 313 301 317 294 334 317 374 316 406 338 398 349 446 353 510 370 509 385 521 385 527 446 532 442 529 473 475 456 441 472 446 458 447 444 428 446 462 452 453 464 462 471 507 472 527 484 518 474 552 508 554 553 538 514 561 441 564 451 610 446 633 455 649 489 709 485 709 485 714 493 722 502 733 539 685 550 655 530 670 529 709 467 691 478 689 465 656 493 593 449 589 455 518 464 518 558 491 591 413 584 407 570 379 591 434 588 448 633 456 615 421 618 408 613 413 623 418 595 484 568 516 498 432 501 428 518 480 519 499 480 494 425 494 388 478 389 559 316 544 314 528 326 527 316 528 336 517 333 508 304 458 255 459 275 448 269 438 308 412 331 351 320 373 272 377 252 404 252 390 185 389 188 395 163 477 202 439 215 446 183 500 179 471 190 455 191 405 176 403 171 411 159 394 131 468 89 442 82 418 81 399 116 401 120 401 124 412 155 361 229 368 229 390 203 403 171 377 176 376 197 392 147 389 139 356 142 360 144 386 127 383 178 324 120 283 102 335 57 337 65 403 132 367 134 390 126 387 73 363 89 394 50 364 75 284 64 273 90 274 63 231 64 284 64 283 74 361 70 351 127 348 126 330 146 358 144 366 184 441 193 467 218 489 246 482 234 426 230 412 261 405 205 371 159 362 157 300 140 300 94 275 121 321 197 392 272 394 230 391 304 468 302 461 266 427 277 438 261 438 246 433 233 490 258 494 212 456 224 432 229 441 237 500 205 517 264 511 266 483 296 495 272 500 266 505 234 533 270 523 236 542 317 552 303 601 334 625 332 658 294 578 290 555 239 528 245 546 169 557 146 555 155 573 174 565 151 577 119 626 148 621 144 623 124 600 131 578 150 601 142 598 160 647 133 663 111 728 108 727 183 721 132 747 128 745 118 744 83 747 66 734 111 733 140 665 140 690 123 690 70 695 87 695 64 698 29 669 68 638 68 648 108 705 150 677 87 684 168 684 196 657 217 580 221 627 171 698 99 699 67 694 66 752 29 795 32 771 52 825 65 766 67 759 36 739 24 811 39 809 39 793 65 763 63 774 64 775 84 836 114 816 107 849 143 849 104 861 121 902 105 859 127 873 146 808 119 809 107 792 107 790 85 730 78 719 39 669 31 674 13 749 39 781 66 719 69 688 62 764 143 760 67 781 46 799 46 830 79 821 79 873 144 861 145 877 162 819 159 823 162 765 194 742 198 650 193 645 174 655 120 668 118 637 164 714 163 775 237 746 226 758 192 736 196 650 205 643 193 589 148 639 78 719 52 663 47 661 27 614 42 612 38 624 33 655 24 728 24 763 24 754 96 758 135 774 133 745 141 757 121 770 116 829 92 788 35 776 48 721 96 697 96 742 104 717 135 729 175 716 116 755 157 761 193 786 178 799 179 785 147 796 150 772 168 751 82 747 88 706 37 709 54 700 63 611 66 611 44 592 49 574 18 631 18 713 19 760 28 729 28 712 21 717 31 719 47 678 41 666 41 616 63 661 40 667 40 648 12 693 46 705 97 724 87 755 92 750 132 698 184 604 182 539 202 518 161 521 161 536 149 529 147 544 121 564 125 487 164 563 113 635 137 635 144 701 114 702 122 695 98 674 82 660 133 689 114 694 113 691 99 751 98 759 99 755 122 738 185 736 153 741 176 743 172 723 172 715 172 715 150 709 137 671 156 683 154 659 186 679 250 599 271 603 252 627 286 584 280 536 300 545 331 564 272 608 287 658 282 665 283 685 244 644 168 632 101 666 101 742 103 716 141 705 84 673 90 614 39 626 19 649 19 624 21 664 31 599 99 656 82 633 103 681 144 654 50 631 41 644 41 655 52 679 72 700 17 635 63 612 63 557 101 542 113 524 112 492 67 535 44 532 33 516 33 521 36 599 37 592 37 631 33 623 39 601 59 553 138 546 172 506 191 487 188 482 149 520 151 456 144 419 207 444 208 440 286 444 286 440 316 408 404 405 401 391 335 397 322 388 362 392 368 418 360 408 387 405 352 385 352 349 356 355 307 435 314 446 318 451 305 448 270 442 268 418 263 394 274 382 207 401 188 400 184 445 138 434 138 446 202 448 273 474 291 533 219 547 210 544 146 517 77 532 79 487 124 489 131 490 178 493 177 497 208 499 170 501 164 499 252 533 251 597 256 547 237 525 246 521 243 473 262 467 208 468 208 472 181 442 140 448 163 454 180 478 177 454 163 465 89 465 99 438 103 404 128 470 111 467 127 419 162 354 129 364 130 347 146 332 127 303 161 266 148 197 157 188 160 199 152 260 176 179 179 162 180 220 145 260 165 292 121 282 127 312 95 317 101 309 40 313 40 367 60 417 51 418 90 407 76 467 58 431 93 424 105 484 70 466 145 465 111 428 81 457 87 483 93 505 115 469 124 437 143 343 144 370 102 446 97 443 86 467 174 473 204 512 203 516 202 527 203 523 210 488 194 497 191 504 194 522 272 505 320 453 342 448 359 483 338 455 307 477 255 490 230 481 168 465 167 548 175 549 193 548 186 601 142 656 140 615 145 606 145 679 110 656 101 709 60 790 60 730 60 710 58 729 58 726 52 690 36 689 34 702 34 744 83 724 76 752 16 686 16 680 16 702 18 703 36 717 36 719 22 713 22 719 73 711 74 711 56 713 49 706 39 705 41 718 73 715 11 736 17 712 17 661 17 720 17 645 17 654 40 677 38 645 75 609 70 582 73 521 70 555 110 531 106 510 126 487 143 481 111 491 73 510 73 559 73 573 104 656 126 646 148 685 153 710 57 684 55 698 41 773 36 732 26 747 16 712 49 711 71 743 72 725 72 710 101 710 100 732 87 698 160 699 166 681 141 640 166 651 133 687 154 711 145 773 148 771 159 796 170 796 189 792 198 816 257 827 256 825 296 811 272 814 272 796 291 801 251 826 237 820 212 885 212 854 184 818 178 868 194 865 194 896 234 874 236 822 219 818 179 881 268 878 324 825 346 792 336 813 340 812 337 812 334 834 321 834 319 861 350 873 426 879 402 912 444 839 443 855 475 860 533 856 543 906 504 903 496 926 548 916 542 947 623 975 635 958 683 953 717 958 767 947 747 941 737 926 727 938 660 926 691 953 700 957 651 988 653 893 648 904 660 876 682 881 653 903 637 911 627 890 686 889 754 881 756 813 756 831 745 848 745 903 749 902 804 897 777 876 756 856 755 906 806 973 873 973 920 975 935 940 935 929 952 931 966 899 966 894 975 896 930 904 927 903 931 872 969 888 976 856 976 880 976 845 976 837 976 838 985 864 985 899 977 968 983 972 890 972 891 972 853 958 865 975 866 983 863 983 861 983 848 983 904 939 919 939 907 934 914 974 934 974 899 959 900 971 851 988 853 951 853 949 849 939 891 965 891 970 937 944 931 934 919 916 930 919 924 835 924 858 946 873 932 877 900 932 890 951 888 888 902 901 945 921 915 905 889 860 892 818 904 823 914 775 914 774 922 777 923 760 909 812 877 819 827 857 818 909 808 959 780 952 781 937 803 941 811 880 815 863 835 889 778 906 770 891 773 856 751 870 769 910 749 961 714 962 687 979 680 979 651 979 715 987 707 969 709 936 682 941 703 980 696 939 721 958 770 924 851 952 880 925 829 923 804 908 814 915 897 901 907 908 909 938 925 932 903 929 875 979 847 986 848 969 855 972 858 972 839 921 815 945 857 945 826 946 824 957 829 " />
</svg>