<svg viewBox="0 0 1000 1000" xmlns="http://www.w3.org/2000/svg" width="1000" height="1000">
<rect fill="gray" width="1000" height="1000" />
<path fill="none" stroke="#000000" stroke-width="2" d="M505 504 529 531 457 514 464 524 492 440 408 431 387 409 384 439 385 436 371 436 454 447 489 460 532 410 497 491 503 489 430 496 407 520 416 544 417 513 405 556 406 555 394 533 471 485 468 497 493 455 475 484 525 535 454 504 509 472 495 476 575 439 579 449 560 430 555 430 596 452 591 454 619 541 667 475 649 525 646 525 657 518 656 562 563 569 556 567 564 575 595 610 549 665 543 670 599 734 583 794 580 875 627 918 674 927 700 904 697 905 778 861 716 840 670 787 620 764 632 765 684 794 694 834 690 824 690 864 690 854 685 835 750 882 677 878 678 882 729 846 812 797 718 796 729 821 725 857 645 824 715 823 780 772 725 783 658 792 597 760 629 822 677 773 639 827 662 827 583 861 517 850 541 804 541 791 605 848 601 767 604 782 603 782 608 755 601 786 656 775 638 716 725 691 730 704 703 734 738 763 744 757 780 776 772 745 813 755 725 710 726 705 704 678 673 602 685 631 613 620 595 559 539 565 530 550 609 546 593 538 656 498 730 542 645 586 614 561 615 593 666 660 666 745 710 682 703 700 720 712 755 722 670 687 656 706 657 706 694 630 700 580 732 647 802 696 799 687 798 681 789 685 862 656 853 644 783 617 759 545 767 558 763 610 722 592 700 553 696 619 770 629 685 588 611 566 585 645 555 683 582 655 552 615 602 594 677 622 676 627 658 660 683 677 719 750 753 757 707 813 728 745 729 744 731 734 748 767 726 765 720 756 740 769 725 827 687 766 688 700 673 765 651 789 666 812 597 844 598 749 623 723 587 712 588 714 506 770 532 797 467 813 546 795 548 788 499 862 531 868 531 839 585 818 623 875 643 967 655 940 664 962 603 937 696 910 735 820 643 806 643 806 597 805 548 890 606 817 591 850 572 867 519 902 569 899 514 886 436 840 455 831 496 830 574 815 562 828 637 824 676 767 685 714 722 762 764 741 782 821 685 799 735 717 742 697 784 710 779 733 742 697 664 745 684 714 700 692 709 766 689 770 614 800 544 841 463 814 503 795 526 800 545 887 603 844 576 853 575 853 495 839 475 744 386 764 445 696 486 663 477 638 500 660 426 635 475 549 529 503 553 472 540 374 493 367 524 355 528 353 519 301 576 306 607 310 603 302 647 316 559 317 504 319 440 249 439 303 428 253 387 225 387 208 408 198 433 175 452 252 429 251 448 250 443 242 433 200 451 184 378 132 425 115 377 101 376 78 385 75 461 98 494 122 551 129 556 125 548 125 522 125 494 127 464 130 473 182 451 190 451 189 426 191 425 282 419 291 348 287 348 287 353 345 358 345 324 417 326 365 304 375 227 337 234 304 208 278 197 198 171 170 154 164 141 138 192 131 171 224 261 188 266 194 245 203 319 166 356 149 394 208 463 152 508 168 480 196 398 208 406 246 372 231 372 147 418 60 469 24 492 32 529 50 463 105 476 69 453 139 479 175 571 167 542 161 590 235 579 225 621 298 609 212 585 211 539 133 567 118 548 144 575 189 576 200 510 187 520 192 562 151 588 150 613 79 609 79 699 72 657 140 657 141 672 219 694 130 639 207 698 254 742 255 718 261 689 199 686 203 705 294 730 348 725 360 755 332 714 367 657 302 608 252 658 194 660 192 666 222 609 158 669 136 670 146 683 146 635 223 647 230 656 227 616 203 600 130 603 130 542 122 496 136 465 203 521 267 562 241 508 206 448 198 404 245 381 228 368 218 342 220 351 216 340 205 322 275 232 259 271 306 232 365 159 394 157 313 98 301 114 376 183 446 198 378 184 408 216 350 155 414 132 394 111 409 106 420 143 510 104 534 66 603 71 602 34 653 76 669 79 685 85 689 154 662 187 574 186 575 160 634 85 680 21 672 53 687 34 738 85 671 109 672 127 747 111 770 193 753 208 702 235 725 191 657 121 688 203 687 220 771 256 763 250 829 202 759 133 758 172 719 166 722 146 778 71 804 25 799 92 730 138 649 134 680 108 704 96 681 85 615 152 555 65 516 75 490 117 409 161 359 157 310 161 318 234 342 241 354 239 347 260 298 245 255 243 253 169 263 170 266 142 262 200 195 182 205 241 211 242 218 244 222 245 189 170 153 185 87 193 16 272 54 261 33 263 53 203 52 188 56 167 43 148 64 95 31 96 45 57 33 45 99 28 31 34 37 45 29 36 14 28 16 40 12 47 29 72 14 155 61 125 22 94 48 113 50 124 54 84 22 115 38 124 26 122 28 112 16 108 23 152 104 104 186 101 175 155 210 159 242 244 289 299 348 354 383 382 356 355 351 349 347 391 375 378 333 361 307 411 245 440 232 410 249 409 252 426 242 460 159 481 110 505 111 528 193 459 245 531 252 586 194 537 200 525 227 472 142 501 50 495 62 418 57 357 11 438 44 477 69 473 81 486 95 471 111 551 164 515 184 522 219 477 261 411 253 375 254 317 298 292 284 333 266 341 268 362 229 315 151 285 171 306 265 304 279 308 275 288 277 247 346 224 383 305 414 354 489 333 491 336 496 352 535 271 579 232 589 164 615 259 585 321 558 331 534 318 535 312 561 316 562 322 624 321 624 379 623 433 584 498 510 512 527 518 524 458 469 491 469 525 432 543 365 560 399 513 434 571 420 586 379 638 367 618 310 637 318 651 365 730 395 799 379 804 392 864 444 853 422 883 391 918 422 918 422 871 382 962 415 965 423 912 377 947 363 889 340 806 305 817 223 788 254 826 299 737 297 827 296 814 304 859 284 855 266 855 263 850 301 868 359 821 327 866 243 798 187 792 242 787 332 881 326 816 384 856 297 822 247 794 194 801 186 851 153 829 116 890 51 890 52 893 55 960 60 957 64 957 65 877 58 966 82 944 96 947 97 967 102 966 102 989 48 949 134 918 121 880 90 964 126 921 102 826 128 750 160 806 161 717 124 685 114 665 116 653 62 707 13 704 29 757 111 789 124 791 43 789 48 789 49 816 36 797 49 779 145 744 167 711 111 691 129 693 123 769 162 777 167 761 136 758 140 694 128 639 99 580 152 622 225 609 223 604 227 655 236 674 248 647 306 673 314 669 316 699 384 679 354 693 381 693 457 672 463 614 527 618 525 656 520 591 492 556 404 518 375 507 392 549 397 552 330 558 282 576 365 561 402 582 435 591 451 610 423 565 405 620 466 669 388 677 366 713 376 677 366 619 359 628 358 546 412 560 402 633 457 675 392 686 389 675 412 712 419 705 394 773 367 768 402 803 412 774 427 761 437 777 467 777 467 763 470 812 522 867 563 821 596 882 624 786 629 809 575 881 620 863 630 918 675 935 743 878 820 886 788 945 813 948 806 989 847 931 804 916 789 983 725 954 715 964 718 959 640 959 640 958 676 972 679 965 689 955 695 942 754 925 772 954 835 946 761 902 821 897 828 851 768 853 727 806 733 793 731 782 783 802 687 802 688 741 650 743 702 750 720 780 680 769 698 725 660 728 638 678 580 661 577 726 603 784 539 776 532 773 542 774 567 819 515 743 549 805 599 805 626 809 672 863 640 889 644 854 634 783 588 724 508 754 472 711 457 708 452 728 475 701 498 792 469 718 489 790 504 802 413 742 410 769 375 750 299 739 247 740 184 706 184 666 171 662 177 649 272 694 277 694 218 739 176 686 176 777 212 765 119 709 53 716 43 707 38 625 85 625 90 636 125 701 83 712 92 700 101 737 137 702 94 673 121 664 70 689 96 599 62 531 135 465 172 455 209 428 187 349 132 319 85 362 81 369 88 363 62 325 120 342 40 349 77 294 126 209 151 264 92 253 141 315 203 386 186 396 187 453 119 533 151 488 155 508 243 515 225 515 225 423 218 358 179 353 182 359 154 350 98 305 145 397 158 457 186 455 177 489 123 519 91 523 94 612 118 627 78 640 128 581 105 520 150 498 137 557 133 550 84 485 34 419 74 416 48 432 24 432 34 405 75 459 46 398 96 406 171 397 166 384 177 390 191 358 233 369 248 395 226 430 228 438 235 376 203 371 209 470 214 468 310 450 324 439 381 410 361 457 376 461 388 519 395 480 334 478 327 470 257 387 271 375 257 389 275 426 366 428 367 393 326 324 335 247 325 305 339 281 322 295 282 219 252 229 297 227 271 230 268 175 253 212 310 157 235 93 165 130 160 49 211 65 200 36 176 18 115 40 189 53 277 103 202 138 251 161 217 141 189 160 182 127 230 74 207 128 149 146 140 144 68 126 70 124 66 123 31 80 61 97 16 182 15 130 14 105 48 166 96 259 61 224 103 191 121 143 54 122 45 163 67 214 48 221 46 271 115 189 91 181 133 187 126 256 111 280 60 320 46 249 69 228 135 296 139 387 148 404 61 437 33 481 74 422 125 339 163 276 87 308 154 283 202 285 245 243 196 270 247 248 332 241 369 210 411 203 398 246 426 246 420 152 408 189 380 161 337 189 260 188 237 124 199 113 179 114 165 159 85 251 95 253 45 249 28 321 81 337 109 356 105 364 26 352 28 364 31 369 85 348 60 391 13 414 11 399 49 408 45 337 73 338 79 385 34 342 54 295 43 291 53 329 48 377 37 427 92 407 171 353 183 382 116 385 138 408 222 398 254 378 254 375 258 311 265 353 309 401 323 422 335 488 381 493 377 489 474 425 537 434 496 372 466 383 383 442 426 453 435 404 433 463 490 497 449 489 479 441 467 430 481 432 477 399 555 449 565 449 634 451 612 466 574 490 552 499 642 519 639 497 652 494 650 446 663 441 614 369 597 286 563 252 526 299 586 200 578 263 535 335 588 269 540 230 618 145 634 141 670 79 688 70 703 91 723 38 689 119 677 32 721 33 684 32 696 31 710 15 716 73 676 27 627 112 640 70 632 69 559 125 613 78 536 116 512 85 503 69 569 71 540 105 560 101 524 80 534 95 540 128 452 138 481 93 449 127 535 157 550 155 585 93 556 180 585 111 635 97 709 25 693 35 613 39 639 45 569 84 568 32 543 99 605 38 682 100 638 150 650 143 735 111 652 78 566 116 521 131 497 215 487 249 429 224 439 205 419 208 416 108 410 129 471 133 439 93 477 10 441 73 413 61 418 50 378 50 378 43 329 108 352 47 412 47 440 48 406 68 419 56 428 71 418 67 408 67 441 40 407 75 320 77 263 44 193 27 200 42 198 77 124 86 152 140 134 166 89 160 94 198 146 288 165 367 171 383 171 460 171 377 151 354 234 432 271 448 203 368 169 425 154 419 183 431 139 497 70 473 150 472 245 402 286 448 319 454 319 516 369 459 360 477 417 480 457 488 379 575 397 611 350 608 446 579 458 623 392 563 367 651 379 682 331 746 342 772 287 781 293 868 275 851 367 878 402 896 486 903 449 912 468 898 441 896 460 962 401 888 403 939 417 925 364 988 403 938 408 949 472 975 405 969 442 931 534 871 465 862 442 866 469 838 425 854 469 880 459 851 456 838 448 821 405 873 365 853 373 922 367 930 347 982 300 953 283 946 329 939 293 942 296 954 258 983 254 977 272 922 247 938 248 856 230 905 211 877 179 821 196 828 181 893 168 862 176 812 257 768 256 820 223 737 168 741 149 746 141 759 149 764 163 753 167 725 173 717 203 695 288 721 285 740 278 670 219 657 294 680 390 686 389 678 353 680 348 735 310 807 369 839 423 801 391 772 426 761 379 795 395 783 469 790 454 861 462 828 409 804 340 800 333 792 324 818 366 818 366 802 370 801 363 720 416 705 464 709 433 768 461 802 433 804 433 813 426 784 436 787 443 812 466 802 385 805 453 819 543 801 539 813 546 813 448 812 450 827 377 870 368 858 300 821 231 811 240 746 199 737 224 762 295 782 233 836 212 771 179 758 194 785 268 796 287 828 275 840 279 819 341 814 346 750 377 694 427 768 373 800 408 818 431 781 412 740 427 739 427 737 392 723 367 791 316 822 337 741 312 717 362 715 309 719 280 713 322 747 353 788 295 746 296 718 320 719 248 689 232 681 242 685 243 751 279 708 240 788 238 771 231 864 211 940 241 937 323 956 315 920 289 909 277 965 226 901 243 907 240 915 252 895 337 817 277 878 224 894 245 895 278 935 272 905 328 942 403 957 392 943 402 948 416 953 491 980 499 945 552 966 601 947 558 895 586 921 546 948 482 879 544 822 503 848 558 882 592 902 597 869 653 901 697 932 708 941 713 940 704 877 733 901 757 944 839 851 827 874 810 867 794 878 794 863 854 835 785 767 756 770 756 763 678 767 712 771 622 783 641 808 628 761 609 762 613 812 598 746 624 664 637 673 607 694 672 706 677 687 671 702 639 700 639 724 576 678 552 677 533 678 535 704 478 775 531 679 547 707 538 781 546 738 467 751 445 654 431 677 345 640 335 622 343 582 362 576 379 491 339 527 262 523 269 550 338 571 399 591 380 631 298 623 275 583 298 550 322 496 299 461 237 485 157 457 158 531 158 524 148 582 72 530 63 553 38 563 34 560 29 534 43 526 65 545 36 549 27 600 18 609 21 636 75 627 81 652 58 624 68 545 76 522 67 490 70 413 81 326 116 372 65 294 74 283 33 285 24 233 55 227 58 135 37 155 31 158 14 209 62 196 37 183 103 176 142 199 136 269 77 307 98 348 142 430 158 428 148 475 103 461 157 436 124 430 157 429 151 408 136 407 138 441 166 482 95 467 89 503 63 420 58 462 33 496 50 557 64 571 74 578 58 546 46 554 39 486 56 484 69 502 56 518 50 493 117 482 106 552 79 620 31 642 20 594 24 626 76 596 126 669 83 668 85 645 118 723 139 655 207 594 258 548 284 518 256 517 247 519 244 441 255 478 308 486 272 478 263 539 217 462 168 464 220 516 197 528 244 518 241 496 250 521 240 576 242 494 211 491 201 500 220 482 173 391 175 392 172 328 163 344 167 352 175 354 165 289 169 318 211 379 232 320 205 386 179 311 231 267 300 329 378 325 384 342 405 382 395 396 342 465 321 431 322 425 312 479 312 511 331 563 365 582 428 608 398 631 304 634 298 659 318 720 312 627 306 647 215 638 205 662 219 617 149 625 121 640 153 667 171 733 211 711 268 714 309 780 344 741 390 755 425 845 389 917 447 896 449 856 518 818 519 838 508 862 503 875 502 861 498 875 483 932 490 928 492 941 460 945 460 925 401 902 455 875 486 961 460 929 453 925 450 952 458 923 385 879 332 936 262 920 173 928 171 906 184 878 99 848 75 825 123 819 129 858 145 770 105 852 160 805 159 778 138 793 133 813 71 800 62 890 21 924 109 919 107 937 81 888 105 926 115 949 170 882 202 897 156 860 126 828 152 733 140 757 133 763 176 719 141 725 109 801 133 809 171 906 191 880 177 852 138 802 118 806 117 788 134 799 116 825 155 823 149 854 185 887 271 886 267 886 324 842 354 850 362 896 281 914 203 941 111 958 91 933 107 904 185 957 193 964 268 949 252 913 245 891 320 839 300 873 268 930 281 921 287 926 283 929 307 953 290 933 358 948 276 967 327 915 371 885 380 920 429 835 396 855 483 862 570 847 539 803 488 839 449 831 450 832 453 772 487 746 458 764 495 766 505 791 596 833 610 839 573 816 503 728 520 805 553 878 596 870 660 908 659 933 618 959 643 971 661 990 635 982 664 903 722 927 678 887 609 887 608 837 583 759 602 773 649 701 704 694 688 669 701 670 718 750 679 701 716 665 778 588 824 652 853 709 850 780 780 811 834 717 830 738 843 745 819 663 876 610 915 613 910 528 892 464 864 467 825 483 823 562 766 534 795 487 792 488 870 564 825 562 845 584 872 606 925 630 932 595 988 591 990 565 898 499 903 535 916 577 876 532 883 515 923 444 942 407 979 383 917 382 917 382 916 411 959 424 864 394 834 452 800 445 818 527 810 579 799 587 772 593 834 538 778 500 705 425 747 382 804 367 731 318 731 291 740 290 742 299 730 206 694 201 665 220 641 139 665 146 659 114 725 51 727 52 735 130 705 113 739 60 764 57 764 29 760 45 814 51 826 66 902 78 886 94 872 98 937 84 911 119 986 118 985 162 906 109 859 93 838 73 833 64 885 104 804 118 901 82 833 112 899 111 932 109 930 189 931 176 868 162 781 154 771 150 766 138 753 135 741 234 752 198 789 256 731 194 788 108 840 94 783 115 795 110 778 143 701 146 772 112 776 149 689 83 702 77 684 66 662 62 649 34 643 43 641 29 645 55 572 123 584 130 573 162 507 138 539 135 598 188 672 170 717 166 652 162 649 131 657 153 751 186 669 203 644 227 620 282 597 312 568 359 564 336 622 301 613 265 633 271 597 277 582 275 508 342 503 316 508 370 563 325 637 341 656 329 680 354 770 421 734 404 741 326 773 357 856 374 836 378 842 441 900 441 817 428 780 378 804 408 898 409 898 457 821 504 749 473 732 445 812 512 773 510 773 452 813 384 836 320 835 283 843 289 831 228 883 264 850 261 838 203 830 198 811 166 784 72 760 128 768 139 688 85 769 171 808 233 748 274 661 333 696 329 697 412 720 437 753 " />
</svg>